<svg xmlns="http://www.w3.org/2000/svg" width="880" height="464.68" viewBox="0 0 880 464.68">
  <g id="Group_7426" data-name="Group 7426" transform="translate(-362.663 -367.855)">
    <path id="Path_1588" data-name="Path 1588" d="M1245.3,752.476l-.013.236a117.658,117.658,0,0,1-2.633,19.488,127.051,127.051,0,0,1-30.519,57.99l-.01.01c-.631.679-1.019,1.067-1.068,1.168-20.254,0-151.193.023-300.407-.019-40.22-.01-81.767-.026-122.836-.052-18.65-.01-37.2-.019-55.48-.032-13.312-.01-26.482-.023-39.441-.033-49.2-.042-95.4-.1-135.025-.168-21.212-.039-40.538-.081-57.434-.133-44.989-.126-72.713-.288-72.8-.5l-.048-.146a.166.166,0,0,1-.045-.087.013.013,0,0,1,0-.01.179.179,0,0,0-.052-.1c-.12-.279-26.038-36.122-33.744-85.3a170.12,170.12,0,0,1-1.873-36.08v-.2C394.571,662.2,418.025,610,489.7,565.7c68.491-42.391-4.319-70.354,50.142-117.553,62.6-54.163,130.946,5.791,200.563-18.792a115.286,115.286,0,0,0,37-22.027,133.622,133.622,0,0,1,22.713-15.848c1.278-.735,2.5-1.423,3.779-2.061A158.733,158.733,0,0,1,819.1,382.5c3.481-1.375,7.062-2.649,10.7-3.827a178.4,178.4,0,0,1,17.76-4.856,230.791,230.791,0,0,1,26.492-4.367q5.891-.664,11.924-1.032c73.677-4.645,156.12,19.9,203.012,56.8q3.9,3.067,7.463,6.247c.983.88,2.342,2.158,3.947,3.811,10.944,11.277,33.23,39.978,24.029,78.788a89.178,89.178,0,0,1-3.067,10.148,104.189,104.189,0,0,1-7.1,15.237c-4.561,8.094-3.875,16.043.246,24.091l.045.049h0q.34.65.709,1.3a51.022,51.022,0,0,0,2.937,4.561q.932,1.311,1.976,2.614c.172.217.346.433.524.654.356.437.718.87,1.09,1.307,0,0,0,0,0,0,.3.349.6.7.906,1.045s.615.7.935,1.051.637.7.964,1.045.654.7.99,1.051.676.7,1.019,1.048.693.7,1.045,1.048h0c5.92,5.878,7.554,13.289,9.087,21.949.6,3.374,1.181,6.942,2,10.679.036.165.074.333.11.5a83.581,83.581,0,0,0,2.776,9.792c.055.165.116.333.178.5a69.173,69.173,0,0,0,4.017,9.048c.152.288.307.576.469.864v0c.123.23.249.456.382.686.094.169.188.334.285.5.162.285.33.569.5.854l0,.006c.068.117.139.239.217.359,1.177,1.964,2.507,3.956,4.008,5.975q.98,1.33,2.067,2.675a103.921,103.921,0,0,0,14.855,14.791,189.9,189.9,0,0,0,31.609,20.607q3.154,1.683,6.078,3.413c18.375,10.853,29.889,22.913,34.006,36.523.582,1.922,1.566,5.678,2.514,10.19C1244.266,737.152,1245.628,745.854,1245.3,752.476Z" transform="translate(-19.583)" fill="#ebf3fa"/>
    <path id="Path_1589" data-name="Path 1589" d="M2691,1488.845c.01.081.013.162.02.243a117.616,117.616,0,0,1-2.634,19.488l-36.361,5.7-7.5,1.177-4.27.67-29.584,4.642-2.646.414-5.95.935-1.546.243h-.01s-1.275.149-3.487.359c-.185.019-.379.036-.576.055-1.472.136-3.3.294-5.389.453-.786.061-1.611.12-2.468.178-.162.01-.323.023-.489.032q-1.8.121-3.772.23c-2.7.146-5.623.272-8.66.346-1.181.029-2.381.052-3.59.068-.631.007-1.269.01-1.906.01q-1.15,0-2.31,0c-1.142-.007-2.291-.026-3.436-.055-.841-.019-1.685-.045-2.523-.074q-1.757-.068-3.5-.172c-.178-.01-.356-.022-.534-.036-.54-.032-1.081-.068-1.617-.11-2.665-.2-5.267-.475-7.741-.841-.417-.061-.828-.126-1.236-.194-9.307-1.521-16.576-4.422-18.248-9.618-1.521-4.759,1.766-11.529,12.61-20.947q2.708-2.349,5.639-4.5c12.584-9.252,28.076-15.809,44.31-20.438q1.009-.291,2.022-.566l.311-.087c.184-.048.368-.1.553-.149.365-.1.731-.2,1.093-.291q.961-.257,1.925-.5,4.863-1.243,9.763-2.268,1.233-.262,2.465-.508c.385-.078.77-.156,1.152-.23q.4-.083.8-.156.606-.117,1.213-.23a333.047,333.047,0,0,1,39.143-4.853c13.63-.919,25.547-.993,34.006-.844a50.742,50.742,0,0,1,2.514,10.19C2689.654,1473.252,2690.45,1481.449,2691,1488.845Z" transform="translate(-1465.314 -736.375)" fill="#a8d29f"/>
    <path id="Path_1590" data-name="Path 1590" d="M1768.428,534.654s10.461-21.635,35.477-19.231c0,0,36.319-36.059,75.048-4.808,0,0,41.169-7.743,71.658,6.7,20.328,9.633,27.041,19.738,27.041,19.738Z" transform="translate(-951.002 -87.956)" fill="#f8fcff"/>
    <path id="Path_1591" data-name="Path 1591" d="M1655.2,1119.54s14.124-24.485,47.9-21.765c0,0,49.035-40.81,101.324-5.441,0,0,55.584-8.764,96.747,7.588,27.445,10.9,36.51,22.339,36.51,22.339Z" transform="translate(-874.407 -480.354)" fill="#f8fcff"/>
    <path id="Path_1592" data-name="Path 1592" d="M2133.26,842.308s-10.682-18.3-36.189-13.773-18.719,34-32.835,47.857-26.424,26.2-20.364,45.768-26.123,23.754-26.03,53.308,6.97,46.973,46.535,49.273,102.852-8.155,111.422-20.075,7.128-38.092-14.388-71.486-1.858-36.392-16.238-55.729S2140.914,850.272,2133.26,842.308Z" transform="translate(-1119.73 -311.163)" fill="#79b27f"/>
    <path id="Path_1593" data-name="Path 1593" d="M887.947,720.9s9.287-16.1,31.5-14.311c0,0,32.242-26.835,66.625-3.578,0,0,36.548-5.762,63.615,4.99,18.046,7.168,24.006,14.688,24.006,14.688Z" transform="translate(-355.355 -220.315)" fill="#f8fcff"/>
    <g id="Group_7296" data-name="Group 7296" transform="translate(523.982 725.807)">
      <path id="Path_1594" data-name="Path 1594" d="M911.6,1578.588h185.739l77.43-.051h140.026s.082-.141.239-.422c.112-.2.264-.469.461-.813l.076-.1v-.051s.076-.054.076-.1a12.076,12.076,0,0,0,.849-1.437,8.929,8.929,0,0,1,.543-.875v-.1l.076-.051c1.061-1.834,2.377-4.222,3.9-7.107.138-.261.276-.526.416-.793.757-2.179,1.589-4.621,2.475-7.31,2.106-6.526,4.523-14.491,6.885-23.483.925-3.546,1.851-7.245,2.725-11.1.515-2.225,1.032-4.542,1.527-6.882q.215-1.029.424-2.059c.909-4.382,1.764-8.9,2.534-13.509,1.513-9.031,2.709-18.442,3.381-27.98-60.144,3.1-176.081,11.259-263.287,30.736-123.053,27.481-153.462,31.92-205.59,36.85C843.326,1544.7,876.612,1563,911.6,1578.588Z" transform="translate(-861.332 -1474.357)" fill="#d4dfff"/>
      <path id="Path_1595" data-name="Path 1595" d="M1258.484,1566.135s199.3-60.7,249.479-65.1,2.109,5.879,2.109,5.879-136.392,35.481-168.094,50.613C1274.935,1589.531,1258.484,1566.135,1258.484,1566.135Z" transform="translate(-1130.006 -1491.667)" fill="#d4dfff"/>
      <path id="Path_1596" data-name="Path 1596" d="M1444.565,1596.383s166.1-76.289,211.044-88.686,2.9,4.932,2.9,4.932-131.146,68.387-158.619,85.653C1495.911,1600.782,1444.565,1596.383,1444.565,1596.383Z" transform="translate(-1255.89 -1493.889)" fill="#d4dfff"/>
    </g>
    <path id="Path_1597" data-name="Path 1597" d="M1760.441,1648.269s-40.11-11.923-63.594,2.688-9.592,31.427-37.375,29.965-41.675-2.867-43.137,13.555h122.831Z" transform="translate(-848.111 -863.101)" fill="#a8d29f"/>
    <g id="Group_7312" data-name="Group 7312" transform="translate(871.509 563.539)">
      <g id="Group_7301" data-name="Group 7301" transform="translate(0 0)">
        <g id="Group_7298" data-name="Group 7298" transform="translate(66.361)">
          <rect id="Rectangle_429" data-name="Rectangle 429" width="134.815" height="189.027" transform="translate(9.281 78.522)" fill="#f9ddbf"/>
          <path id="Path_1598" data-name="Path 1598" d="M2690.919,1220.461v183.982H2586.172V1215.408h100.184C2687.927,1217.076,2689.447,1218.744,2690.919,1220.461Z" transform="translate(-2442.078 -1136.909)" fill="#fff3e9"/>
          <path id="Path_1599" data-name="Path 1599" d="M2310.941,989.634l-10.646,21.93-4.709,9.665-.148.393-.2.344-.147.294-.245.49-.1.246-4.661,9.567-.245.491-.588,1.275-8.292,17.024-1.914,3.974-2.7,5.5-1.423,2.944H2140.746l9.273-12.02.294-.392,60.346-78.106.05-.049h5.3l81.834-.294C2300.737,978.447,2305.3,984.041,2310.941,989.634Z" transform="translate(-2140.746 -972.855)" fill="#ed9f4a"/>
          <path id="Path_1600" data-name="Path 1600" d="M2295.908,1063.449v15.719l-134.815,5.7v-20.5H2157.1l69.964-90.61Z" transform="translate(-2151.812 -973.429)" fill="#f9ddbf"/>
          <path id="Rectangle_430" data-name="Rectangle 430" d="M18.769,0h0A18.159,18.159,0,0,1,36.928,18.159V61.391a0,0,0,0,1,0,0H0a0,0,0,0,1,0,0V18.769A18.769,18.769,0,0,1,18.769,0Z" transform="translate(56.306 45.462)" fill="#efcdaf"/>
          <g id="Group_7297" data-name="Group 7297" transform="translate(69.594)">
            <path id="Path_1601" data-name="Path 1601" d="M2547.414,1068.717H2427.9l-6.034-8-7.114-9.469-55.979-74.623-2.6-3.483-.294-.392h119.515l.294.392,2.6,3.483,55.98,74.623,7.114,9.469Z" transform="translate(-2355.877 -972.752)" fill="#f99746"/>
          </g>
        </g>
        <g id="Group_7300" data-name="Group 7300" transform="translate(0 116.333)">
          <path id="Path_1602" data-name="Path 1602" d="M2062.6,1332.361l-31.448,64.746h-95.541l49.811-64.509Z" transform="translate(-1935.609 -1332.361)" fill="#ed9f4a"/>
          <g id="Group_7299" data-name="Group 7299" transform="translate(2.863)">
            <path id="Path_1603" data-name="Path 1603" d="M2071.448,1332.361,2040,1397.107h-95.541l49.811-64.509Z" transform="translate(-1944.459 -1332.361)" fill="#f9ddbf"/>
            <path id="Path_1604" data-name="Path 1604" d="M2039.794,1532.5v86.293l-95.331.187V1532.5Z" transform="translate(-1944.462 -1467.757)" fill="#f9ddbf"/>
            <rect id="Rectangle_431" data-name="Rectangle 431" width="80.727" height="86.293" transform="translate(95.332 64.745)" fill="#fff3e9"/>
            <path id="Path_1605" data-name="Path 1605" d="M2227.564,1401.427h-86.722l-51.262-68.339,25.833,0,59.4.013Z" transform="translate(-2042.634 -1332.853)" fill="#f99746"/>
            <path id="Path_1606" data-name="Path 1606" d="M2075.652,1434.777a4.507,4.507,0,1,1,4.507,4.508A4.507,4.507,0,0,1,2075.652,1434.777Z" transform="translate(-2033.211 -1398.597)" fill="#efcdaf"/>
            <path id="Path_1607" data-name="Path 1607" d="M2281.585,1401.436h-16.459l-95.692-68.335,59.4.013Z" transform="translate(-2096.655 -1332.862)" fill="#e88338"/>
          </g>
        </g>
      </g>
      <g id="Group_7306" data-name="Group 7306" transform="translate(196.297 38.725)">
        <path id="Path_1608" data-name="Path 1608" d="M2577.014,1134.91h65.613l-34.612-42.448H2542.4Z" transform="translate(-2542.402 -1092.461)" fill="#2b478b"/>
        <g id="Group_7305" data-name="Group 7305" transform="translate(8.529)">
          <path id="Path_1609" data-name="Path 1609" d="M2569.174,1125.98h65.613l-.407-.5h-65.613Z" transform="translate(-2568.768 -1114.798)" fill="#aec3ff"/>
          <path id="Path_1610" data-name="Path 1610" d="M2697.549,1092.459l34.612,42.449h.5l-34.612-42.449Z" transform="translate(-2655.888 -1092.459)" fill="#aec3ff"/>
          <path id="Path_1611" data-name="Path 1611" d="M2643.811,1092.459l34.613,42.449h.5l-34.613-42.449Z" transform="translate(-2619.534 -1092.459)" fill="#aec3ff"/>
          <path id="Path_1612" data-name="Path 1612" d="M2592.1,1092.459l34.612,42.449h.5l-34.612-42.449Z" transform="translate(-2584.553 -1092.459)" fill="#aec3ff"/>
          <path id="Path_1613" data-name="Path 1613" d="M2595.676,1157.8h65.613l-.408-.5H2595.27Z" transform="translate(-2586.696 -1136.323)" fill="#aec3ff"/>
          <path id="Path_1614" data-name="Path 1614" d="M2623.662,1192.12h65.612l-.407-.5h-65.612Z" transform="translate(-2605.628 -1159.542)" fill="#aec3ff"/>
          <g id="Group_7302" data-name="Group 7302" transform="translate(14.696 8.922)">
            <path id="Path_1615" data-name="Path 1615" d="M2723.546,1124.128l.378-2.044-3.711-2.045-.378,2.045Z" transform="translate(-2685.661 -1120.039)" fill="#aec3ff"/>
            <path id="Path_1616" data-name="Path 1616" d="M2670.387,1124.128l.378-2.044-3.712-2.045-.377,2.045Z" transform="translate(-2649.698 -1120.039)" fill="#aec3ff"/>
            <path id="Path_1617" data-name="Path 1617" d="M2617.907,1124.128l.377-2.044-3.712-2.045-.377,2.045Z" transform="translate(-2614.195 -1120.039)" fill="#aec3ff"/>
          </g>
          <g id="Group_7303" data-name="Group 7303" transform="translate(23.06 19.181)">
            <path id="Path_1618" data-name="Path 1618" d="M2749.4,1155.839l.378-2.044-3.712-2.045-.377,2.045Z" transform="translate(-2711.517 -1151.75)" fill="#aec3ff"/>
            <path id="Path_1619" data-name="Path 1619" d="M2696.244,1155.839l.377-2.044-3.711-2.045-.377,2.045Z" transform="translate(-2675.555 -1151.75)" fill="#aec3ff"/>
            <path id="Path_1620" data-name="Path 1620" d="M2643.763,1155.839l.378-2.044-3.711-2.045-.378,2.045Z" transform="translate(-2640.052 -1151.75)" fill="#aec3ff"/>
          </g>
          <g id="Group_7304" data-name="Group 7304" transform="translate(32.114 30.284)">
            <path id="Path_1621" data-name="Path 1621" d="M2777.389,1190.161l.377-2.044-3.711-2.045-.377,2.045Z" transform="translate(-2739.503 -1186.072)" fill="#aec3ff"/>
            <path id="Path_1622" data-name="Path 1622" d="M2724.23,1190.161l.378-2.044-3.711-2.045-.378,2.045Z" transform="translate(-2703.541 -1186.072)" fill="#aec3ff"/>
            <path id="Path_1623" data-name="Path 1623" d="M2671.749,1190.161l.377-2.044-3.711-2.045-.377,2.045Z" transform="translate(-2668.037 -1186.072)" fill="#aec3ff"/>
          </g>
        </g>
      </g>
      <g id="Group_7311" data-name="Group 7311" transform="translate(75.699 133.281)">
        <path id="Path_1624" data-name="Path 1624" d="M2200.972,1423.218h59.453l-31.362-38.463H2169.61Z" transform="translate(-2169.61 -1384.754)" fill="#2b478b"/>
        <g id="Group_7310" data-name="Group 7310" transform="translate(7.728)">
          <path id="Path_1625" data-name="Path 1625" d="M2193.869,1415.125h59.452l-.369-.452H2193.5Z" transform="translate(-2193.5 -1404.994)" fill="#aec3ff"/>
          <path id="Path_1626" data-name="Path 1626" d="M2310.189,1384.752l31.363,38.463H2342l-31.363-38.463Z" transform="translate(-2272.44 -1384.752)" fill="#aec3ff"/>
          <path id="Path_1627" data-name="Path 1627" d="M2261.5,1384.752l31.363,38.463h.452l-31.363-38.463Z" transform="translate(-2239.5 -1384.752)" fill="#aec3ff"/>
          <path id="Path_1628" data-name="Path 1628" d="M2214.644,1384.752l31.362,38.463h.452l-31.362-38.463Z" transform="translate(-2207.804 -1384.752)" fill="#aec3ff"/>
          <path id="Path_1629" data-name="Path 1629" d="M2217.882,1443.956h59.453l-.369-.452h-59.452Z" transform="translate(-2209.745 -1424.498)" fill="#aec3ff"/>
          <path id="Path_1630" data-name="Path 1630" d="M2243.241,1475.056h59.453l-.369-.452h-59.452Z" transform="translate(-2226.9 -1445.537)" fill="#aec3ff"/>
          <g id="Group_7307" data-name="Group 7307" transform="translate(13.316 8.085)">
            <path id="Path_1631" data-name="Path 1631" d="M2333.747,1413.448l.342-1.852-3.363-1.852-.342,1.852Z" transform="translate(-2299.418 -1409.743)" fill="#aec3ff"/>
            <path id="Path_1632" data-name="Path 1632" d="M2285.579,1413.448l.343-1.852-3.363-1.852-.342,1.852Z" transform="translate(-2266.833 -1409.743)" fill="#aec3ff"/>
            <path id="Path_1633" data-name="Path 1633" d="M2238.025,1413.448l.342-1.852-3.363-1.852-.343,1.852Z" transform="translate(-2234.662 -1409.743)" fill="#aec3ff"/>
          </g>
          <g id="Group_7308" data-name="Group 7308" transform="translate(20.895 17.38)">
            <path id="Path_1634" data-name="Path 1634" d="M2357.176,1442.182l.342-1.853-3.363-1.852-.342,1.852Z" transform="translate(-2322.847 -1438.477)" fill="#aec3ff"/>
            <path id="Path_1635" data-name="Path 1635" d="M2309.008,1442.182l.342-1.853-3.363-1.852-.342,1.852Z" transform="translate(-2290.261 -1438.477)" fill="#aec3ff"/>
            <path id="Path_1636" data-name="Path 1636" d="M2261.454,1442.182l.342-1.853-3.364-1.852-.342,1.852Z" transform="translate(-2258.091 -1438.477)" fill="#aec3ff"/>
          </g>
          <g id="Group_7309" data-name="Group 7309" transform="translate(29.098 27.441)">
            <path id="Path_1637" data-name="Path 1637" d="M2382.535,1473.281l.342-1.853-3.363-1.853-.342,1.853Z" transform="translate(-2348.206 -1469.576)" fill="#aec3ff"/>
            <path id="Path_1638" data-name="Path 1638" d="M2334.366,1473.281l.342-1.853-3.363-1.853-.342,1.853Z" transform="translate(-2315.62 -1469.576)" fill="#aec3ff"/>
            <path id="Path_1639" data-name="Path 1639" d="M2286.812,1473.281l.342-1.853-3.363-1.853-.342,1.853Z" transform="translate(-2283.449 -1469.576)" fill="#aec3ff"/>
          </g>
        </g>
      </g>
    </g>
    <path id="Path_1640" data-name="Path 1640" d="M657.08,1601.115c-.019.055-.039.107-.058.162H432.012a.013.013,0,0,1,0-.01.178.178,0,0,0-.052-.1c-.12-.279-26.038-36.122-33.744-85.3,5.632-2.164,25.518-8.887,53.494-8.159q1.689.043,3.416.127a165.955,165.955,0,0,1,33.744,5.114c.424.11.851.22,1.278.334l.359.1c.854.23,1.708.466,2.569.712.964.275,1.928.559,2.9.854l1.045.32q1.931.6,3.885,1.259c15.2,5.115,24.628,10.627,31.192,15.955l.408.33a67.027,67.027,0,0,1,7.777,7.605q.878,1,1.692,1.971c.673.8,1.32,1.594,1.954,2.368a64.526,64.526,0,0,0,6.392,7.078c6.353,5.781,15.285,9.275,37.309,8.4q5.925-.238,11.332-.117C646.317,1561.1,664.326,1581.4,657.08,1601.115Z" transform="translate(-24.05 -771.078)" fill="#a8d29f"/>
    <path id="Path_1641" data-name="Path 1641" d="M2435.994,1547.556c-.01,0-.022,0-.032-.006a237.437,237.437,0,0,0-38.975-4.3,250.112,250.112,0,0,0-34.508,1.343l-1.326.145c-1.3.152-2.61.31-3.93.485q-4.319.563-8.754,1.311a.006.006,0,0,1-.01,0c-.88.149-1.753.3-2.64.462q-1.422.252-2.853.531-3.067.592-6.185,1.281-1.369.3-2.747.628c-.919.21-1.837.433-2.762.66q-1.679.417-3.368.857h0l-1.052.281h0q-1.548.417-3.106.857-6.293,1.781-12.7,4c-7.007,2.42-13.23,4.8-18.795,7.127-7.062,2.941-13.063,5.784-18.249,8.472-5.121,2.646-9.469,5.16-13.286,7.505-20.678,12.707-25.77,20.549-53.975,18.352q-3.771-.286-7.228-.236a62.512,62.512,0,0,0-19.523,3.2,49.231,49.231,0,0,0-22.554,15.557,40.092,40.092,0,0,0-5.658,9c-.058.133-.084.2-.084.2h251.145a127.052,127.052,0,0,0,30.519-57.99,117.723,117.723,0,0,0,2.633-19.488Z" transform="translate(-1210.276 -795.08)" fill="#a8d29f"/>
    <path id="Path_1642" data-name="Path 1642" d="M752.19,1106.025a19.061,19.061,0,0,1,18.388-9.015s18.823-16.9,38.9-2.254c0,0,21.337-3.63,37.139,3.143,10.536,4.516,14.016,9.252,14.016,9.252Z" transform="translate(-263.516 -487.709)" fill="#f8fcff"/>
    <path id="Path_1643" data-name="Path 1643" d="M1377.623,837.614s4.49-9.645,15.226-8.573c0,0,15.588-16.075,32.21-2.143,0,0,17.669-3.452,30.755,2.989,8.724,4.294,11.606,8.8,11.606,8.8Z" transform="translate(-686.622 -306.7)" fill="#f8fcff"/>
    <g id="Group_7325" data-name="Group 7325" transform="translate(411.151 653.852)">
      <g id="Group_7324" data-name="Group 7324" transform="translate(0)">
        <g id="Group_7313" data-name="Group 7313" transform="translate(69.683 49.915)">
          <path id="Path_1644" data-name="Path 1644" d="M793.393,1531.087l12.814-.16,29.927-124.7-12.814.16Z" transform="translate(-772.224 -1406.227)" fill="#1d3f77"/>
          <path id="Path_1645" data-name="Path 1645" d="M727.955,1788.045h57.463a6.087,6.087,0,0,0-6.087-6.087H734.042a6.087,6.087,0,0,0-6.087,6.087Z" transform="translate(-727.955 -1660.41)" fill="#1d3f77"/>
        </g>
        <path id="Path_1646" data-name="Path 1646" d="M714.974,1371.743l-5.519-27.671h0l-.012-.059-18.367-92.084-178.527.026,23.9,119.814,33.91-.005h.319l37.95-.005h.116l37.784-.005h.259l37.7-.005h.342Z" transform="translate(-512.549 -1251.929)" fill="#1d3f77"/>
        <g id="Group_7323" data-name="Group 7323" transform="translate(3.058)">
          <path id="Path_1647" data-name="Path 1647" d="M724.426,1369.374,545.9,1369.4,522,1251.954l178.527-.025Z" transform="translate(-522.001 -1251.929)" fill="#2a4e96"/>
          <g id="Group_7321" data-name="Group 7321" transform="translate(5.606 0.32)">
            <g id="Group_7314" data-name="Group 7314" transform="translate(28.368 0.016)">
              <path id="Path_1648" data-name="Path 1648" d="M651.2,1370.1h-.341l-23.834-117.13h.342Z" transform="translate(-627.024 -1252.968)" fill="#c0d8fb"/>
            </g>
            <g id="Group_7315" data-name="Group 7315" transform="translate(66.412 0.011)">
              <path id="Path_1649" data-name="Path 1649" d="M768.8,1370.081h-.341l-23.834-117.13h.341Z" transform="translate(-744.624 -1252.951)" fill="#c0d8fb"/>
            </g>
            <g id="Group_7316" data-name="Group 7316" transform="translate(104.455 0.005)">
              <path id="Path_1650" data-name="Path 1650" d="M886.4,1370.064h-.342l-23.834-117.13h.342Z" transform="translate(-862.224 -1252.935)" fill="#c0d8fb"/>
            </g>
            <g id="Group_7317" data-name="Group 7317" transform="translate(142.499)">
              <path id="Path_1651" data-name="Path 1651" d="M1004,1370.048h-.342l-23.834-117.13h.341Z" transform="translate(-979.824 -1252.918)" fill="#c0d8fb"/>
            </g>
            <g id="Group_7318" data-name="Group 7318" transform="translate(0 27.232)">
              <path id="Path_1652" data-name="Path 1652" d="M717.924,1337.417l-178.527.025-.065-.321,178.526-.025Z" transform="translate(-539.332 -1337.097)" fill="#c0d8fb"/>
            </g>
            <g id="Group_7319" data-name="Group 7319" transform="translate(6.354 58.456)">
              <path id="Path_1653" data-name="Path 1653" d="M737.565,1433.939l-178.527.025-.065-.321,178.527-.025Z" transform="translate(-558.973 -1433.618)" fill="#c0d8fb"/>
            </g>
            <g id="Group_7320" data-name="Group 7320" transform="translate(12.707 89.68)">
              <path id="Path_1654" data-name="Path 1654" d="M757.2,1530.46l-178.526.025-.065-.321,178.526-.025Z" transform="translate(-578.613 -1530.139)" fill="#c0d8fb"/>
            </g>
          </g>
          <g id="Group_7322" data-name="Group 7322" transform="translate(36.045 24.264)">
            <path id="Path_1655" data-name="Path 1655" d="M637.8,1333.889l-4.378-3.452,2.973-3.453,4.378,3.452Z" transform="translate(-633.424 -1326.967)" fill="#c0d8fb"/>
            <path id="Path_1656" data-name="Path 1656" d="M657.543,1430.906l-4.378-3.452,2.973-3.453,4.378,3.452Z" transform="translate(-646.779 -1392.6)" fill="#c0d8fb"/>
            <path id="Path_1657" data-name="Path 1657" d="M755.93,1333.872l-4.377-3.452,2.973-3.453,4.377,3.452Z" transform="translate(-713.338 -1326.956)" fill="#c0d8fb"/>
            <path id="Path_1658" data-name="Path 1658" d="M775.671,1430.889l-4.378-3.452,2.972-3.453,4.378,3.452Z" transform="translate(-726.693 -1392.589)" fill="#c0d8fb"/>
            <path id="Path_1659" data-name="Path 1659" d="M873.53,1333.855l-4.378-3.452,2.973-3.453,4.378,3.452Z" transform="translate(-792.895 -1326.945)" fill="#c0d8fb"/>
            <path id="Path_1660" data-name="Path 1660" d="M990.074,1333.838l-4.378-3.452,2.973-3.453,4.378,3.452Z" transform="translate(-871.737 -1326.934)" fill="#c0d8fb"/>
            <path id="Path_1661" data-name="Path 1661" d="M677.083,1526.931l-4.378-3.452,2.973-3.453,4.378,3.452Z" transform="translate(-659.998 -1457.561)" fill="#c0d8fb"/>
            <path id="Path_1662" data-name="Path 1662" d="M795.211,1526.915l-4.378-3.452,2.973-3.453,4.378,3.452Z" transform="translate(-739.911 -1457.55)" fill="#c0d8fb"/>
            <path id="Path_1663" data-name="Path 1663" d="M912.811,1526.9l-4.378-3.452,2.973-3.453,4.378,3.452Z" transform="translate(-819.468 -1457.538)" fill="#c0d8fb"/>
            <path id="Path_1664" data-name="Path 1664" d="M1029.355,1526.881l-4.378-3.452,2.973-3.453,4.377,3.452Z" transform="translate(-898.311 -1457.527)" fill="#c0d8fb"/>
            <path id="Path_1665" data-name="Path 1665" d="M1009.815,1430.856l-4.377-3.452,2.973-3.453,4.377,3.452Z" transform="translate(-885.092 -1392.566)" fill="#c0d8fb"/>
            <path id="Path_1666" data-name="Path 1666" d="M893.271,1430.872l-4.378-3.452,2.973-3.453,4.378,3.452Z" transform="translate(-806.25 -1392.577)" fill="#c0d8fb"/>
          </g>
        </g>
      </g>
    </g>
    <g id="Group_7338" data-name="Group 7338" transform="translate(625.462 709.501)">
      <g id="Group_7337" data-name="Group 7337" transform="translate(0 0)">
        <g id="Group_7326" data-name="Group 7326" transform="translate(47.843 34.271)">
          <path id="Path_1667" data-name="Path 1667" d="M1367.849,1615.615l8.8-.11,20.547-85.617-8.8.11Z" transform="translate(-1353.315 -1529.889)" fill="#1d3f77"/>
          <path id="Path_1668" data-name="Path 1668" d="M1322.921,1792.035h39.453a4.18,4.18,0,0,0-4.18-4.179H1327.1a4.18,4.18,0,0,0-4.18,4.179Z" transform="translate(-1322.921 -1704.404)" fill="#1d3f77"/>
        </g>
        <path id="Path_1669" data-name="Path 1669" d="M1314.009,1506.213l-3.79-19h0l-.008-.04-12.611-63.223-122.572.018,16.408,82.261,23.282,0h.219l26.056,0h.079l25.942,0h.178l25.885,0h.234Z" transform="translate(-1175.029 -1423.951)" fill="#1d3f77"/>
        <g id="Group_7336" data-name="Group 7336" transform="translate(2.099)">
          <path id="Path_1670" data-name="Path 1670" d="M1320.5,1504.586l-122.572.017-16.408-80.635,122.572-.017Z" transform="translate(-1181.519 -1423.951)" fill="#2a4e96"/>
          <g id="Group_7334" data-name="Group 7334" transform="translate(3.849 0.22)">
            <g id="Group_7327" data-name="Group 7327" transform="translate(19.477 0.011)">
              <path id="Path_1671" data-name="Path 1671" d="M1270.223,1505.083h-.234l-16.364-80.418h.234Z" transform="translate(-1253.625 -1424.665)" fill="#c0d8fb"/>
            </g>
            <g id="Group_7328" data-name="Group 7328" transform="translate(45.597 0.007)">
              <path id="Path_1672" data-name="Path 1672" d="M1350.964,1505.072h-.234l-16.364-80.419h.235Z" transform="translate(-1334.366 -1424.653)" fill="#c0d8fb"/>
            </g>
            <g id="Group_7329" data-name="Group 7329" transform="translate(71.716 0.003)">
              <path id="Path_1673" data-name="Path 1673" d="M1431.705,1505.06h-.235l-16.364-80.418h.234Z" transform="translate(-1415.107 -1424.642)" fill="#c0d8fb"/>
            </g>
            <g id="Group_7330" data-name="Group 7330" transform="translate(97.836)">
              <path id="Path_1674" data-name="Path 1674" d="M1512.447,1505.049h-.235l-16.364-80.419h.235Z" transform="translate(-1495.848 -1424.631)" fill="#c0d8fb"/>
            </g>
            <g id="Group_7331" data-name="Group 7331" transform="translate(0 18.697)">
              <path id="Path_1675" data-name="Path 1675" d="M1316.034,1482.646l-122.572.018-.045-.221,122.572-.017Z" transform="translate(-1193.417 -1482.426)" fill="#c0d8fb"/>
            </g>
            <g id="Group_7332" data-name="Group 7332" transform="translate(4.362 40.135)">
              <path id="Path_1676" data-name="Path 1676" d="M1329.519,1548.916l-122.572.017-.045-.221,122.572-.017Z" transform="translate(-1206.902 -1548.695)" fill="#c0d8fb"/>
            </g>
            <g id="Group_7333" data-name="Group 7333" transform="translate(8.725 61.572)">
              <path id="Path_1677" data-name="Path 1677" d="M1343,1615.184l-122.572.018-.045-.22,122.572-.018Z" transform="translate(-1220.387 -1614.964)" fill="#c0d8fb"/>
            </g>
          </g>
          <g id="Group_7335" data-name="Group 7335" transform="translate(24.748 16.659)">
            <path id="Path_1678" data-name="Path 1678" d="M1261.024,1480.223l-3.005-2.37,2.041-2.371,3.005,2.37Z" transform="translate(-1258.019 -1475.471)" fill="#c0d8fb"/>
            <path id="Path_1679" data-name="Path 1679" d="M1274.578,1546.833l-3.006-2.37,2.041-2.371,3.006,2.37Z" transform="translate(-1267.188 -1520.533)" fill="#c0d8fb"/>
            <path id="Path_1680" data-name="Path 1680" d="M1342.128,1480.211l-3.005-2.37,2.041-2.371,3.005,2.37Z" transform="translate(-1312.886 -1475.464)" fill="#c0d8fb"/>
            <path id="Path_1681" data-name="Path 1681" d="M1355.682,1546.821l-3.005-2.37,2.041-2.371,3.005,2.37Z" transform="translate(-1322.055 -1520.525)" fill="#c0d8fb"/>
            <path id="Path_1682" data-name="Path 1682" d="M1422.869,1480.2l-3.005-2.37,2.041-2.371,3.006,2.37Z" transform="translate(-1367.507 -1475.455)" fill="#c0d8fb"/>
            <path id="Path_1683" data-name="Path 1683" d="M1502.885,1480.189l-3.006-2.37,2.041-2.371,3.005,2.37Z" transform="translate(-1421.638 -1475.448)" fill="#c0d8fb"/>
            <path id="Path_1684" data-name="Path 1684" d="M1287.994,1612.761l-3.006-2.37,2.041-2.371,3.005,2.37Z" transform="translate(-1276.264 -1565.134)" fill="#c0d8fb"/>
            <path id="Path_1685" data-name="Path 1685" d="M1369.1,1612.75l-3.006-2.37,2.041-2.371,3.005,2.37Z" transform="translate(-1331.13 -1565.126)" fill="#c0d8fb"/>
            <path id="Path_1686" data-name="Path 1686" d="M1449.839,1612.738l-3.006-2.37,2.041-2.371,3.006,2.37Z" transform="translate(-1385.752 -1565.118)" fill="#c0d8fb"/>
            <path id="Path_1687" data-name="Path 1687" d="M1529.855,1612.727l-3.006-2.37,2.041-2.371,3.005,2.37Z" transform="translate(-1439.883 -1565.11)" fill="#c0d8fb"/>
            <path id="Path_1688" data-name="Path 1688" d="M1516.439,1546.8l-3.006-2.37,2.041-2.371,3.005,2.37Z" transform="translate(-1430.807 -1520.51)" fill="#c0d8fb"/>
            <path id="Path_1689" data-name="Path 1689" d="M1436.423,1546.81l-3.005-2.37,2.041-2.371,3.006,2.37Z" transform="translate(-1376.677 -1520.517)" fill="#c0d8fb"/>
          </g>
        </g>
      </g>
    </g>
    <g id="Group_7381" data-name="Group 7381" transform="translate(799.58 704.904)">
      <path id="Path_1690" data-name="Path 1690" d="M1916.045,1605.026l2.917-.569s-6.971-27.568-6.015-29.845c.774-1.889,8.809-3.255,12.747-6.556a6.223,6.223,0,0,0,1.844-2.367,8.819,8.819,0,0,0-1.32-8.923,92.251,92.251,0,0,0-13.635,4.416c-4.621,1.98-8.9,4.553-10.084,7.534C1899.653,1575.933,1916.045,1605.026,1916.045,1605.026Z" transform="translate(-1841.057 -1509.205)" fill="#e8945b"/>
      <path id="Path_1691" data-name="Path 1691" d="M1920.433,1704.92a.992.992,0,0,1,.519-.7,8.337,8.337,0,0,0,3.176-2.349c.6-.8,3.069-3.158,3.069-3.158l.015-.007c.064-.016.386-.011,1.954.63.81.331,1.652-1.19,1.652-1.19a1.549,1.549,0,0,1,.5.357,1.431,1.431,0,0,1,.4.912,5.728,5.728,0,0,0,1.095,2.167c.274.383.489.648.489.648s.169.33-1.208.853l-1.648.427c-.572.066-1.016.03-1.6.111a1.719,1.719,0,0,0-1.261.629l-.011.018-7,1.81C1920.329,1705.9,1920.365,1705.342,1920.433,1704.92Z" transform="translate(-1853.38 -1604.849)" fill="#415da5"/>
      <g id="BPbxa9" transform="translate(0 43.675)">
        <g id="Group_7339" data-name="Group 7339" transform="translate(13.735 26.912)">
          <path id="Path_1692" data-name="Path 1692" d="M1795.311,1658.528a1.3,1.3,0,0,0,1.3-1.3A29.3,29.3,0,0,0,1756.541,1630a1.3,1.3,0,0,0,.962,2.42,26.69,26.69,0,0,1,36.506,24.809A1.3,1.3,0,0,0,1795.311,1658.528Z" transform="translate(-1755.721 -1627.944)" fill="#2c3a64"/>
        </g>
        <g id="Group_7355" data-name="Group 7355" transform="translate(0 30.766)">
          <g id="Group_7353" data-name="Group 7353" transform="translate(2.596 1.764)">
            <path id="Path_1693" data-name="Path 1693" d="M1787.132,1709.39a4.336,4.336,0,1,0-4.336,4.336A4.336,4.336,0,0,0,1787.132,1709.39Z" transform="translate(-1759.965 -1685.726)" fill="#415da5"/>
            <g id="Group_7352" data-name="Group 7352">
              <g id="Group_7340" data-name="Group 7340" transform="translate(22.75 2.791)">
                <rect id="Rectangle_432" data-name="Rectangle 432" width="21.758" height="0.588" transform="matrix(0.338, -0.941, 0.941, 0.338, 0, 20.479)" fill="#415da5"/>
              </g>
              <g id="Group_7341" data-name="Group 7341" transform="translate(8.872 3.898)">
                <path id="Path_1694" data-name="Path 1694" d="M1783.427,1686.359l.232-.54-20.794-8.933-13.67-19.529-.482.337,13.766,19.666.077.033Z" transform="translate(-1748.713 -1657.357)" fill="#415da5"/>
              </g>
              <g id="Group_7342" data-name="Group 7342" transform="translate(9.942 23.01)">
                <path id="Path_1695" data-name="Path 1695" d="M1773.156,1739.67l.558-.186c-.147-.442-8.187-21.6-8.529-22.5l-.209-.55-12.954,20.486.5.314,12.326-19.492C1767.789,1725.493,1773.045,1739.334,1773.156,1739.67Z" transform="translate(-1752.022 -1716.435)" fill="#415da5"/>
              </g>
              <g id="Group_7343" data-name="Group 7343" transform="translate(22.781 17.936)">
                <rect id="Rectangle_433" data-name="Rectangle 433" width="23.415" height="0.588" transform="translate(0 3.969) rotate(-9.758)" fill="#415da5"/>
              </g>
              <g id="Group_7344" data-name="Group 7344" transform="translate(14.319 1.671)">
                <rect id="Rectangle_434" data-name="Rectangle 434" width="0.588" height="21.38" transform="matrix(0.949, -0.316, 0.316, 0.949, 0, 0.186)" fill="#415da5"/>
              </g>
              <g id="Group_7345" data-name="Group 7345" transform="translate(0 12.672)">
                <path id="Path_1696" data-name="Path 1696" d="M1744.166,1695.777l.086-.044L1765.417,1685l-.266-.524-21.079,10.686-22.687-3.805-.1.58Z" transform="translate(-1721.289 -1684.479)" fill="#415da5"/>
              </g>
              <g id="Group_7346" data-name="Group 7346" transform="translate(13.733 23.025)">
                <path id="Path_1697" data-name="Path 1697" d="M1764.3,1738.968c.125-.369,5.557-13.734,8.6-21.207l11.747,18.48.5-.316-12.358-19.441-.215.528c-.354.871-8.678,21.326-8.826,21.771Z" transform="translate(-1763.74 -1716.483)" fill="#415da5"/>
              </g>
              <g id="Group_7347" data-name="Group 7347" transform="translate(22.787 23.375)">
                <rect id="Rectangle_435" data-name="Rectangle 435" width="0.588" height="23.031" transform="translate(0 0.582) rotate(-81.57)" fill="#415da5"/>
              </g>
              <g id="Group_7348" data-name="Group 7348" transform="translate(23.784 5.686)">
                <rect id="Rectangle_436" data-name="Rectangle 436" width="19.275" height="0.588" transform="matrix(0.656, -0.755, 0.755, 0.656, 0, 14.551)" fill="#415da5"/>
              </g>
              <g id="Group_7349" data-name="Group 7349" transform="translate(21.8 25.257)">
                <rect id="Rectangle_437" data-name="Rectangle 437" width="0.588" height="21.385" transform="matrix(0.997, -0.083, 0.083, 0.997, 0, 0.049)" fill="#415da5"/>
              </g>
              <g id="Group_7350" data-name="Group 7350" transform="translate(3.556 22.246)">
                <rect id="Rectangle_438" data-name="Rectangle 438" width="24.504" height="0.588" transform="translate(0 13.963) rotate(-34.739)" fill="#415da5"/>
              </g>
              <g id="Group_7351" data-name="Group 7351" transform="translate(22.537)">
                <path id="Path_1698" data-name="Path 1698" d="M1807.942,1684.758l.417-.414-16.818-16.964v-22.073h-.588v22.315Z" transform="translate(-1790.954 -1645.308)" fill="#415da5"/>
              </g>
            </g>
          </g>
          <g id="Group_7354" data-name="Group 7354">
            <path id="Path_1699" data-name="Path 1699" d="M1759.333,1650.451c-.469-.65-.97-1.281-1.5-1.883a25.585,25.585,0,0,0-7.117-5.68,24.837,24.837,0,0,0-3.688-1.624,25.39,25.39,0,0,0-11.022-1.265h0a25.348,25.348,0,0,0-13.891,6.017l0,0a25.417,25.417,0,0,0-7.906,26.126,25.069,25.069,0,0,0,2.4,5.742c.029.058.065.114.1.171a25.4,25.4,0,0,0,18.776,12.448h.013a25.024,25.024,0,0,0,3.2.2,25.86,25.86,0,0,0,3.261-.207h.006a25.418,25.418,0,0,0,17.375-40.052Zm-.408,23.2c-.071.181-.149.362-.233.54a21.89,21.89,0,0,1-3.675,5.668c-.129.149-.262.294-.4.437a22.161,22.161,0,0,1-3.937,3.3c-.162.11-.327.213-.5.317a21.792,21.792,0,0,1-3.452,1.737c-.181.072-.365.142-.55.21a21.729,21.729,0,0,1-6.259,1.284c-.2.013-.391.019-.589.026-.217.007-.43.01-.647.01a21.884,21.884,0,0,1-7.965-1.5c-.184-.068-.365-.143-.547-.217a22.16,22.16,0,0,1-2.565-1.291c-.126-.074-.252-.152-.378-.23-.168-.1-.333-.2-.495-.314a21.984,21.984,0,0,1-5.8-5.519c-.1-.139-.2-.281-.3-.424-.113-.162-.223-.327-.327-.492-.2-.3-.388-.605-.569-.915a21.954,21.954,0,0,1-2.96-11,22.2,22.2,0,0,1,.253-3.335c.032-.194.065-.389.1-.579a21.935,21.935,0,0,1,8.757-13.849c.158-.116.32-.23.482-.339a21.9,21.9,0,0,1,4.277-2.274c.184-.071.369-.139.553-.207a21.713,21.713,0,0,1,7.188-1.313c.1,0,.2,0,.294,0s.2,0,.294,0a21.718,21.718,0,0,1,6.742,1.154h0l.162.059c.188.065.369.132.553.2a22.127,22.127,0,0,1,2.779,1.284,21.856,21.856,0,0,1,2.637,1.712c.159.116.311.236.463.362a22.119,22.119,0,0,1,2.31,2.122,21.827,21.827,0,0,1,1.941,2.378,21.1,21.1,0,0,1,1.51,2.462c.094.175.184.349.268.524a21.758,21.758,0,0,1,1.562,4.222c.045.191.094.382.136.576a22.019,22.019,0,0,1,.346,7.767c-.026.195-.055.391-.087.583A21.373,21.373,0,0,1,1758.925,1673.655Z" transform="translate(-1713.264 -1639.856)" fill="#202e51"/>
          </g>
        </g>
        <g id="Group_7356" data-name="Group 7356" transform="translate(72.033 12.578)">
          <rect id="Rectangle_439" data-name="Rectangle 439" width="49.07" height="2.645" transform="translate(0 46.74) rotate(-72.271)" fill="#739cf3"/>
        </g>
        <g id="Group_7357" data-name="Group 7357" transform="translate(45.667 12.963)">
          <path id="Path_1700" data-name="Path 1700" d="M1884.571,1632.116l35.27-3.067-65.411-44.225,3.742,7.661,54,34.574-27.833,2.421Z" transform="translate(-1854.43 -1584.824)" fill="#739cf3"/>
        </g>
        <g id="Group_7358" data-name="Group 7358" transform="translate(42.978 13.275)">
          <path id="Path_1701" data-name="Path 1701" d="M1874.2,1630.7l2.223-1.434-27.139-43.475-3.16,3.27Z" transform="translate(-1846.119 -1585.789)" fill="#739cf3"/>
        </g>
        <g id="Group_7359" data-name="Group 7359" transform="translate(25.084 21.688)">
          <path id="Path_1702" data-name="Path 1702" d="M1793.253,1645.133l15.115-32.346-2.025-.81a2.563,2.563,0,0,0-3.333,1.433l-12.206,30.724Z" transform="translate(-1790.803 -1611.793)" fill="#415da5"/>
        </g>
        <g id="Group_7360" data-name="Group 7360" transform="translate(40.311 6.711)">
          <path id="Path_1703" data-name="Path 1703" d="M1840.211,1581.469c2.187-5.675,5.838-14.59,5.779-14.5l-2.2-1.467c-.108.162-.179.269-5.915,15.152Z" transform="translate(-1837.874 -1565.499)" fill="#415da5"/>
        </g>
        <path id="Path_1704" data-name="Path 1704" d="M1874.149,1570.721a2.683,2.683,0,1,0-3.746.611A2.683,2.683,0,0,0,1874.149,1570.721Z" transform="translate(-1818.814 -1559.445)" fill="#415da5"/>
        <path id="Path_1705" data-name="Path 1705" d="M1842.746,1549a2.684,2.684,0,1,0-3.745.611A2.683,2.683,0,0,0,1842.746,1549Z" transform="translate(-1797.57 -1544.753)" fill="#415da5"/>
        <g id="Group_7361" data-name="Group 7361" transform="translate(42.559 2.403)">
          <path id="Path_1706" data-name="Path 1706" d="M1844.821,1554.981l10.25,6.522,1.421-2.8-10.25-6.522Z" transform="translate(-1844.821 -1552.182)" fill="#415da5"/>
        </g>
        <path id="Path_1707" data-name="Path 1707" d="M1894.407,1745.139h5.732a1.228,1.228,0,0,0,1.225-1.224h0a1.228,1.228,0,0,0-1.225-1.225h-5.732a1.228,1.228,0,0,0-1.224,1.225h0A1.228,1.228,0,0,0,1894.407,1745.139Z" transform="translate(-1834.979 -1678.658)" fill="#415da5"/>
        <g id="Group_7362" data-name="Group 7362" transform="translate(61.811 58.763)">
          <rect id="Rectangle_440" data-name="Rectangle 440" width="12.76" height="1.029" transform="translate(0 5.291) rotate(-24.499)" fill="#415da5"/>
        </g>
        <g id="Group_7378" data-name="Group 7378" transform="translate(81.819 30.766)">
          <g id="Group_7376" data-name="Group 7376" transform="translate(2.596 1.764)">
            <path id="Path_1708" data-name="Path 1708" d="M2040.051,1709.39a4.336,4.336,0,1,0-4.336,4.336A4.336,4.336,0,0,0,2040.051,1709.39Z" transform="translate(-2012.884 -1685.726)" fill="#415da5"/>
            <g id="Group_7375" data-name="Group 7375">
              <g id="Group_7363" data-name="Group 7363" transform="translate(22.75 2.791)">
                <rect id="Rectangle_441" data-name="Rectangle 441" width="21.758" height="0.588" transform="matrix(0.338, -0.941, 0.941, 0.338, 0, 20.479)" fill="#415da5"/>
              </g>
              <g id="Group_7364" data-name="Group 7364" transform="translate(8.872 3.898)">
                <path id="Path_1709" data-name="Path 1709" d="M2036.346,1686.359l.232-.54-20.794-8.933-13.67-19.529-.482.337,13.766,19.666.077.033Z" transform="translate(-2001.632 -1657.357)" fill="#415da5"/>
              </g>
              <g id="Group_7365" data-name="Group 7365" transform="translate(9.942 23.01)">
                <path id="Path_1710" data-name="Path 1710" d="M2026.075,1739.67l.558-.186c-.148-.442-8.187-21.6-8.529-22.5l-.209-.55-12.955,20.486.5.314,12.326-19.492C2020.708,1725.493,2025.963,1739.334,2026.075,1739.67Z" transform="translate(-2004.94 -1716.435)" fill="#415da5"/>
              </g>
              <g id="Group_7366" data-name="Group 7366" transform="translate(22.781 17.936)">
                <rect id="Rectangle_442" data-name="Rectangle 442" width="23.415" height="0.588" transform="translate(0 3.969) rotate(-9.758)" fill="#415da5"/>
              </g>
              <g id="Group_7367" data-name="Group 7367" transform="translate(14.319 1.671)">
                <rect id="Rectangle_443" data-name="Rectangle 443" width="0.588" height="21.38" transform="matrix(0.949, -0.316, 0.316, 0.949, 0, 0.186)" fill="#415da5"/>
              </g>
              <g id="Group_7368" data-name="Group 7368" transform="translate(0 12.672)">
                <path id="Path_1711" data-name="Path 1711" d="M1997.085,1695.777l.086-.044L2018.336,1685l-.266-.524-21.079,10.686-22.687-3.805-.1.58Z" transform="translate(-1974.208 -1684.479)" fill="#415da5"/>
              </g>
              <g id="Group_7369" data-name="Group 7369" transform="translate(13.733 23.025)">
                <path id="Path_1712" data-name="Path 1712" d="M2017.217,1738.968c.125-.369,5.557-13.734,8.6-21.207l11.747,18.48.5-.316-12.358-19.441-.215.528c-.354.871-8.677,21.326-8.825,21.771Z" transform="translate(-2016.659 -1716.483)" fill="#415da5"/>
              </g>
              <g id="Group_7370" data-name="Group 7370" transform="translate(22.788 23.369)">
                <rect id="Rectangle_444" data-name="Rectangle 444" width="0.588" height="23.031" transform="translate(0 0.582) rotate(-81.538)" fill="#415da5"/>
              </g>
              <g id="Group_7371" data-name="Group 7371" transform="translate(23.784 5.686)">
                <rect id="Rectangle_445" data-name="Rectangle 445" width="19.275" height="0.588" transform="translate(0 14.551) rotate(-49.02)" fill="#415da5"/>
              </g>
              <g id="Group_7372" data-name="Group 7372" transform="translate(21.799 25.257)">
                <rect id="Rectangle_446" data-name="Rectangle 446" width="0.588" height="21.385" transform="translate(0 0.049) rotate(-4.748)" fill="#415da5"/>
              </g>
              <g id="Group_7373" data-name="Group 7373" transform="translate(3.556 22.246)">
                <rect id="Rectangle_447" data-name="Rectangle 447" width="24.504" height="0.588" transform="translate(0 13.963) rotate(-34.739)" fill="#415da5"/>
              </g>
              <g id="Group_7374" data-name="Group 7374" transform="translate(22.537)">
                <path id="Path_1713" data-name="Path 1713" d="M2060.861,1684.758l.417-.414-16.818-16.964v-22.073h-.588v22.315Z" transform="translate(-2043.873 -1645.308)" fill="#415da5"/>
              </g>
            </g>
          </g>
          <g id="Group_7377" data-name="Group 7377">
            <path id="Path_1714" data-name="Path 1714" d="M1991.611,1639.856a25.237,25.237,0,0,0-10.882,2.452,25.494,25.494,0,0,0-9.4,7.664,25.358,25.358,0,0,0-5.14,15.311c0,.294.006.589.016.883a25.713,25.713,0,0,0,.227,2.637,25.388,25.388,0,0,0,11.73,18.057c.194.123.391.243.589.359a25.429,25.429,0,1,0,12.865-47.364Zm20.235,33.8c-.071.181-.149.362-.233.54a21.9,21.9,0,0,1-3.675,5.668q-.194.223-.4.437a22.137,22.137,0,0,1-3.937,3.3c-.162.11-.327.213-.5.317a21.792,21.792,0,0,1-3.452,1.737c-.181.072-.365.142-.55.21a21.767,21.767,0,0,1-6.263,1.284c-.194.013-.391.019-.586.026-.217.007-.43.01-.647.01a21.87,21.87,0,0,1-7.965-1.5c-.185-.068-.366-.143-.547-.217a22.188,22.188,0,0,1-2.565-1.291c-.126-.074-.252-.152-.378-.23-.168-.1-.333-.2-.5-.314a.018.018,0,0,1-.016-.01,21.977,21.977,0,0,1-6.078-5.933c-.113-.162-.223-.327-.327-.492-.2-.3-.388-.605-.569-.915a21.742,21.742,0,0,1-2.721-7.79,21.153,21.153,0,0,1-.23-2.637c-.006-.191-.01-.385-.01-.576a22.236,22.236,0,0,1,.252-3.335c.032-.194.065-.389.1-.579a21.643,21.643,0,0,1,2.478-6.835,21.027,21.027,0,0,1,1.711-2.585,22.058,22.058,0,0,1,4.568-4.429c.158-.116.32-.23.482-.339a21.9,21.9,0,0,1,4.277-2.274c.185-.071.369-.139.553-.207a21.517,21.517,0,0,1,4.28-1.083h0a21.94,21.94,0,0,1,2.9-.23c.1,0,.2,0,.294,0s.2,0,.294,0a21.7,21.7,0,0,1,6.907,1.213c.188.065.369.132.553.2a21.793,21.793,0,0,1,5.415,3c.159.116.311.236.463.362a21.964,21.964,0,0,1,5.761,6.962c.094.175.185.349.269.524a21.823,21.823,0,0,1,1.563,4.222c.045.191.094.382.132.576a21.96,21.96,0,0,1,.349,7.767c-.026.195-.055.391-.087.583A21.385,21.385,0,0,1,2011.845,1673.655Z" transform="translate(-1966.184 -1639.856)" fill="#202e51"/>
          </g>
        </g>
        <g id="Group_7379" data-name="Group 7379" transform="translate(81.371 22.516)">
          <path id="Path_1715" data-name="Path 1715" d="M1969.95,1621.942a1.323,1.323,0,0,0,1.122-.116h0c11.9-7.188,28.357-4.487,33.119-3.487h.008a.422.422,0,0,0,.509-.413V1617a1.434,1.434,0,0,0-1.224-1.419,107.585,107.585,0,0,0-11.955-1.222h-.272c-7.531,0-14.035,1.348-19.379,4.012a4.511,4.511,0,0,1-3.507.216l-1.467-.515a1.607,1.607,0,0,0-2.05.984h0a1.039,1.039,0,0,0,.636,1.324Z" transform="translate(-1964.797 -1614.355)" fill="#f99746"/>
        </g>
        <path id="Path_1716" data-name="Path 1716" d="M1976.014,1576.943s.478-2.168-.881-2.315-6.32.919-7.643.771-8.231-1.286-9.444-.11-.7,2.205,1.727,2.426,5.659.625,6.577,1.4S1973.92,1582.161,1976.014,1576.943Z" transform="translate(-1878.432 -1564.954)" fill="#f99746"/>
        <circle id="Ellipse_43" data-name="Ellipse 43" cx="6.614" cy="6.614" r="6.614" transform="translate(66.679 53.107)" fill="#2c3a64"/>
      </g>
      <path id="Path_1717" data-name="Path 1717" d="M1857.039,1550.97s-2.165-2.747-3.349-2.405a2.846,2.846,0,0,0-2.162,2.839c.049.381.026,1.883.933,2.2a2.478,2.478,0,0,0,2.27-.425C1855.15,1552.831,1857.039,1550.97,1857.039,1550.97Z" transform="translate(-1806.795 -1503.636)" fill="#e8945b"/>
      <path id="Path_1718" data-name="Path 1718" d="M1857.223,1505.01a3.137,3.137,0,0,0,2.371,2.276c2.071.547,14.883-4.844,17.933-6.347,1.639-.819,4.006-5.372,5.827-9.355.432-.979.842-1.912,1.206-2.754.911-2.117,1.5-3.642,1.5-3.642,0-2.094-2.311-1.276-4.406-.32-.638.3-3.973-1.115-4.861.593-.41.8-.954.706-1.364,1.594-1.616,3.573-3.1,7.6-3.415,8.558C1871.449,1497.32,1857.223,1505.01,1857.223,1505.01Z" transform="translate(-1810.653 -1459.894)" fill="#e8945b"/>
      <path id="Path_1719" data-name="Path 1719" d="M1861.44,1555.93s-2.154-2.7-3.349-2.406c-2.815.7-2.436,2.733-2.386,3.114s.25,1.608,1.157,1.929a2.481,2.481,0,0,0,2.27-.425C1859.551,1557.791,1861.44,1555.93,1861.44,1555.93Z" transform="translate(-1809.596 -1506.996)" fill="#ffb27d"/>
      <path id="Path_1720" data-name="Path 1720" d="M1926.017,1458.968l-7.31,2.7a17.539,17.539,0,0,1-2.621-3.668c-.933-1.638-1.579-3.085-1.579-3.085l5.106-3.576,1.6-1.124C1921.321,1453.471,1926.017,1458.968,1926.017,1458.968Z" transform="translate(-1849.405 -1437.121)" fill="#ffb27d"/>
      <path id="Path_1721" data-name="Path 1721" d="M1921.6,1454.329s-1.446,4.511-5.518,6.018c-.933-1.638-1.579-3.085-1.579-3.085l5.106-3.576Z" transform="translate(-1849.405 -1439.471)" fill="#e8945b"/>
      <path id="Path_1722" data-name="Path 1722" d="M1903.545,1433.107s9.039,1.417,9.835-4.225,2.5-9.259-3.239-10.4-7.165.851-7.889,2.669S1901.214,1432.592,1903.545,1433.107Z" transform="translate(-1840.757 -1415.426)" fill="#ffb27d"/>
      <path id="Path_1723" data-name="Path 1723" d="M1912.868,1411.768a1.57,1.57,0,0,0-.74.428l0-.007a4.463,4.463,0,0,0-1.218-2.447,3.2,3.2,0,0,1,.388,2.056c-1.7-2.911-9.989-.622-10.766-.428s-1.325-.972-1.325-.972a4.65,4.65,0,0,0-.677,5.364c1.017,1.7,4.315,4.2,5.264,3.724s.951.507.9,1.888,2.343,3.7,4.029,4.039c1.358.272,1.465-.658,1.836-1.251a1.886,1.886,0,0,1,.33-.4c1.849-1.67,2.869-5.008,2.455-8.3a8.222,8.222,0,0,0-1.008-2.935A4.291,4.291,0,0,1,1912.868,1411.768Z" transform="translate(-1838.217 -1409.743)" fill="#2c3a64"/>
      <path id="Path_1724" data-name="Path 1724" d="M1934.363,1561.183c.091.41,1.093,3.779,3.688,4.644a41.587,41.587,0,0,0,9.424,2.231,6.223,6.223,0,0,0,1.844-2.367,8.819,8.819,0,0,0-1.32-8.923A92.249,92.249,0,0,0,1934.363,1561.183Z" transform="translate(-1862.838 -1509.205)" fill="#2c3a64"/>
      <path id="Path_1725" data-name="Path 1725" d="M1930.945,1533.7s7.323,8.435.6,17.918-17.674,17.136-18.277,20.518c-1.167,6.546-8.137,20.061-11.457,26.747l-2.845-1.091s5.336-31.692,7.233-35.484,11.724-21.552,11.724-21.552Z" transform="translate(-1838.891 -1493.599)" fill="#ffb27d"/>
      <path id="Path_1726" data-name="Path 1726" d="M1913.254,1483.343c.706.228,2.413.865,2.868,1.639.478.774,5.486-1.389,6.078-3.414-1.434-1.571-3.892-2.913-5.327-2.458C1916.031,1479.359,1914.666,1481.157,1913.254,1483.343Z" transform="translate(-1848.558 -1456.608)" fill="#5885d6"/>
      <path id="Path_1727" data-name="Path 1727" d="M1958.551,1541.716s-9.507,6.773-15.862,6.394c0,0-4.173,7.114-5.1,9.461,0,0,10.812,5.406,16.431,4.41,0,0,7.327-7.113,6.9-12.093A20.338,20.338,0,0,0,1958.551,1541.716Z" transform="translate(-1865.022 -1499.023)" fill="#35488b"/>
      <path id="Path_1728" data-name="Path 1728" d="M1921.064,1478.323l2.279,3.246.182.41,4.735,10.812,2.413,5.509a13.682,13.682,0,0,0,5.964-.364c7.33-2.5,10.516-6.874,10.516-6.874a73.749,73.749,0,0,0-11.358-20.077c-2.094-2.276-7.58-4.143-7.58-4.143-1.5,1.548-6.874,4.257-6.874,4.257C1920.157,1472.032,1921.064,1478.323,1921.064,1478.323Z" transform="translate(-1853.616 -1448.371)" fill="#739af0"/>
      <path id="Path_1729" data-name="Path 1729" d="M1929.367,1499.02l4.735,10.812c3.6-7.261,1.32-17.8,1.32-17.8s-5.782,5.008-5.987,5.4A11.919,11.919,0,0,0,1929.367,1499.02Z" transform="translate(-1859.458 -1465.411)" fill="#5885d6"/>
      <path id="Path_1730" data-name="Path 1730" d="M1862.171,1503.971a3.137,3.137,0,0,0,2.371,2.276c2.071.546,14.883-4.845,17.933-6.347,1.639-.819,4.006-5.372,5.827-9.355.433-.979.843-1.912,1.207-2.754.91-2.117,1.5-3.642,1.5-3.642,0-2.094-4.94-4.94-7.034-3.983-.637.3-1.479,1.593-2.367,3.3-.41.8-.819,1.661-1.229,2.55-1.616,3.574-3.1,7.6-3.414,8.558C1876.4,1496.281,1862.171,1503.971,1862.171,1503.971Z" transform="translate(-1814 -1457.255)" fill="#ffb27d"/>
      <path id="Path_1731" data-name="Path 1731" d="M1918.461,1486.015a43.035,43.035,0,0,1,7.921,4.53c.433-.979.843-1.912,1.207-2.754.91-2.117,1.5-3.642,1.5-3.642,0-2.094-4.94-4.94-7.033-3.983-.638.3-1.48,1.593-2.368,3.3C1919.28,1484.262,1918.871,1485.127,1918.461,1486.015Z" transform="translate(-1852.08 -1457.255)" fill="#739af0"/>
      <g id="Group_7380" data-name="Group 7380" transform="translate(52.055 102.418)">
        <path id="Path_1732" data-name="Path 1732" d="M1886.162,1731.8h-1.7c-.571-.08-.991-.225-1.576-.293a1.716,1.716,0,0,0-1.379.293.14.14,0,0,0-.016.015h-7.232c-.182-.23-.007-.762.164-1.154a.992.992,0,0,1,.677-.547,8.335,8.335,0,0,0,3.664-1.48c.779-.623,3.762-2.289,3.762-2.289l.016,0c.065,0,.377.086,1.734,1.1.7.523,1.9-.738,1.9-.738a1.545,1.545,0,0,1,.392.47,1.43,1.43,0,0,1,.155.982,5.726,5.726,0,0,0,.518,2.372c.168.438.31.75.31.75S1887.626,1731.634,1886.162,1731.8Z" transform="translate(-1874.178 -1726.338)" fill="#739cf3"/>
        <path id="Path_1733" data-name="Path 1733" d="M1904.01,1727.168a5.7,5.7,0,0,1-1.834.818c-.768.089-2.205-1.645-2.205-1.645l.016,0c.065,0,.377.086,1.734,1.1.7.523,1.9-.738,1.9-.738A1.545,1.545,0,0,1,1904.01,1727.168Z" transform="translate(-1891.627 -1726.338)" fill="#415da5"/>
        <path id="Path_1734" data-name="Path 1734" d="M1886.162,1740.546h-1.7c-.571-.079-.991-.225-1.576-.293a1.716,1.716,0,0,0-1.379.293.138.138,0,0,0-.016.015h-7.232c-.182-.23-.007-.762.164-1.154.22-.173.281.75.4.9a36.473,36.473,0,0,0,6.234-.161,3.883,3.883,0,0,1,2.73-.3,7.314,7.314,0,0,0,3.448-.576c.168.439.31.75.31.75S1887.626,1740.384,1886.162,1740.546Z" transform="translate(-1874.178 -1735.088)" fill="#415da5"/>
      </g>
    </g>
    <g id="Group_7425" data-name="Group 7425" transform="translate(1069.801 701.249)">
      <g id="Group_7382" data-name="Group 7382" transform="translate(13.841 80.155)">
        <path id="Path_1735" data-name="Path 1735" d="M2625.7,1672.748a1.129,1.129,0,0,0,1.128-1.129A25.412,25.412,0,0,0,2592.07,1648a1.129,1.129,0,1,0,.834,2.1,23.152,23.152,0,0,1,31.667,21.52A1.13,1.13,0,0,0,2625.7,1672.748Z" transform="translate(-2591.358 -1646.219)" fill="#2c3a64"/>
      </g>
      <path id="Path_1736" data-name="Path 1736" d="M2733.9,1558.936s-1.72,3.58-3.9,8.542a183.531,183.531,0,0,0-7.242,18.8,30.327,30.327,0,0,0-1.558,7.814c0,.658,2.536,3.33,3.269,4.349,4.623,6.433,10.937,15.025,10.937,15.025l1.723-.433s-2.414-10.746-5.932-16.11c-.691-1.055-2.639-2.339-2.547-2.455l0,0c.3-.38,1.061-1.334,2.094-2.694a130.473,130.473,0,0,0,11.115-16.949q.309-.595.6-1.184c1.747-3.55,2.9-6.876,2.788-9.341Z" transform="translate(-2665.358 -1507.017)" fill="#e8945b"/>
      <g id="Group_7383" data-name="Group 7383" transform="translate(64.539 102.414)">
        <path id="Path_1737" data-name="Path 1737" d="M2756.84,1719.047l-1.186.75c-.437.189-.8.259-1.244.464a1.3,1.3,0,0,0-.814.838.156.156,0,0,0,0,.019l-5.038,3.188c-.241-.1-.385-.6-.461-.981a.849.849,0,0,1,.2-.729,6.434,6.434,0,0,0,1.815-2.781c.232-.833,1.479-3.461,1.479-3.461l.009-.009c.047-.028.306-.1,1.756.1.749.1.953-1.417.953-1.417a1.4,1.4,0,0,1,.508.2,1.483,1.483,0,0,1,.6.705,5.939,5.939,0,0,0,1.543,1.64c.336.272.59.454.59.454S2757.78,1718.273,2756.84,1719.047Z" transform="translate(-2748.076 -1715.028)" fill="#b84c42"/>
        <path id="Path_1738" data-name="Path 1738" d="M2762.151,1715.225a4.442,4.442,0,0,1-.87,1.453c-.491.409-2.356-.324-2.356-.324l.009-.009c.047-.028.306-.1,1.756.1.749.1.953-1.417.953-1.417A1.4,1.4,0,0,1,2762.151,1715.225Z" transform="translate(-2755.416 -1715.028)" fill="#aa3e39"/>
        <path id="Path_1739" data-name="Path 1739" d="M2756.875,1724.364l-1.186.75c-.437.189-.8.259-1.244.464a1.3,1.3,0,0,0-.814.839.136.136,0,0,0,0,.018l-5.038,3.188c-.241-.1-.385-.6-.461-.981.067-.233.57.467.728.529a26.587,26.587,0,0,0,4.262-2.875,2.876,2.876,0,0,1,1.755-1.436,5.424,5.424,0,0,0,2.114-1.973c.336.271.591.454.591.454S2757.814,1723.591,2756.875,1724.364Z" transform="translate(-2748.111 -1720.345)" fill="#aa3e39"/>
      </g>
      <g id="Group_7384" data-name="Group 7384" transform="translate(64.809 66.548)">
        <rect id="Rectangle_448" data-name="Rectangle 448" width="44.438" height="2.396" transform="matrix(0.305, -0.953, 0.953, 0.305, 0, 42.327)" fill="#f99746"/>
      </g>
      <g id="Group_7385" data-name="Group 7385" transform="translate(40.932 66.896)">
        <path id="Path_1740" data-name="Path 1740" d="M2702.4,1648.061l31.94-2.777-59.237-40.05,3.389,6.938,48.906,31.311-25.206,2.192Z" transform="translate(-2675.103 -1605.233)" fill="#f99746"/>
      </g>
      <g id="Group_7386" data-name="Group 7386" transform="translate(38.497 67.179)">
        <path id="Path_1741" data-name="Path 1741" d="M2693,1646.777l2.013-1.3-24.577-39.371-2.862,2.961Z" transform="translate(-2667.576 -1606.107)" fill="#f99746"/>
      </g>
      <path id="Path_1742" data-name="Path 1742" d="M2725.241,1714.161l-4.5,2.6a1.112,1.112,0,0,0-.406,1.515h0a1.113,1.113,0,0,0,1.515.406l4.5-2.6a1.113,1.113,0,0,0,.406-1.515h0A1.111,1.111,0,0,0,2725.241,1714.161Z" transform="translate(-2664.673 -1611.927)" fill="#415da5"/>
      <g id="Group_7387" data-name="Group 7387" transform="translate(59.677 103.454)">
        <path id="Path_1743" data-name="Path 1743" d="M2733.046,1718.7l5.668,6.272.523-.455-5.669-6.272Z" transform="translate(-2733.046 -1718.242)" fill="#415da5"/>
      </g>
      <g id="Group_7388" data-name="Group 7388" transform="translate(73.266 75.548)">
        <path id="Path_1744" data-name="Path 1744" d="M2779.718,1638.849a1.2,1.2,0,0,0,1.016-.105h0c10.775-6.509,25.68-4.063,29.993-3.158h.007a.382.382,0,0,0,.461-.374v-.842a1.3,1.3,0,0,0-1.108-1.286,97.4,97.4,0,0,0-10.827-1.106h-.246c-6.819,0-12.709,1.22-17.549,3.632a4.084,4.084,0,0,1-3.176.2l-1.328-.466a1.455,1.455,0,0,0-1.856.891h0a.939.939,0,0,0,.575,1.2Z" transform="translate(-2775.052 -1631.978)" fill="#35488b"/>
      </g>
      <path id="Path_1745" data-name="Path 1745" d="M2785.209,1598.1s.433-1.963-.8-2.1-5.723.832-6.922.7-7.453-1.164-8.552-.1-.632,2,1.564,2.2,5.124.566,5.956,1.265S2783.312,1602.821,2785.209,1598.1Z" transform="translate(-2697.263 -1532.082)" fill="#415da5"/>
      <circle id="Ellipse_44" data-name="Ellipse 44" cx="5.99" cy="5.99" r="5.99" transform="translate(57.48 109.24) rotate(-45)" fill="#415da5"/>
      <g id="Group_7405" data-name="Group 7405" transform="translate(75.09 83.062)">
        <g id="Group_7402" data-name="Group 7402" transform="translate(2.353 1.598)">
          <g id="Group_7401" data-name="Group 7401">
            <g id="Group_7389" data-name="Group 7389" transform="translate(20.602 2.528)">
              <rect id="Rectangle_449" data-name="Rectangle 449" width="19.704" height="0.533" transform="translate(0 18.546) rotate(-70.26)" fill="#415da5"/>
            </g>
            <g id="Group_7390" data-name="Group 7390" transform="translate(8.034 3.53)">
              <path id="Path_1746" data-name="Path 1746" d="M2844.238,1697.321l.21-.489-18.831-8.09-12.38-17.685-.437.306,12.467,17.809.069.03Z" transform="translate(-2812.801 -1671.057)" fill="#415da5"/>
            </g>
            <g id="Group_7391" data-name="Group 7391" transform="translate(9.003 20.837)">
              <path id="Path_1747" data-name="Path 1747" d="M2834.937,1745.6l.5-.169c-.133-.4-7.413-19.56-7.723-20.375l-.189-.5L2815.8,1743.11l.45.285,11.162-17.652C2830.076,1732.76,2834.835,1745.3,2834.937,1745.6Z" transform="translate(-2815.797 -1724.558)" fill="#415da5"/>
            </g>
            <g id="Group_7392" data-name="Group 7392" transform="translate(20.63 16.243)">
              <rect id="Rectangle_450" data-name="Rectangle 450" width="21.204" height="0.532" transform="translate(0 3.594) rotate(-9.758)" fill="#415da5"/>
            </g>
            <g id="Group_7393" data-name="Group 7393" transform="translate(12.969 1.513)">
              <rect id="Rectangle_451" data-name="Rectangle 451" width="0.532" height="19.362" transform="matrix(0.949, -0.316, 0.316, 0.949, 0, 0.168)" fill="#415da5"/>
            </g>
            <g id="Group_7394" data-name="Group 7394" transform="translate(0 11.476)">
              <path id="Path_1748" data-name="Path 1748" d="M2808.683,1705.85l.079-.04,19.167-9.717-.241-.475L2808.6,1705.3l-20.545-3.446-.088.525Z" transform="translate(-2787.966 -1695.619)" fill="#415da5"/>
            </g>
            <g id="Group_7395" data-name="Group 7395" transform="translate(12.437 20.852)">
              <path id="Path_1749" data-name="Path 1749" d="M2826.915,1744.965c.113-.334,5.031-12.437,7.786-19.206l10.638,16.735.449-.286L2834.6,1724.6l-.195.477c-.321.789-7.858,19.313-7.992,19.716Z" transform="translate(-2826.41 -1724.603)" fill="#415da5"/>
            </g>
            <g id="Group_7396" data-name="Group 7396" transform="translate(20.637 21.163)">
              <rect id="Rectangle_452" data-name="Rectangle 452" width="0.532" height="20.857" transform="translate(0 0.527) rotate(-81.538)" fill="#415da5"/>
            </g>
            <g id="Group_7397" data-name="Group 7397" transform="translate(21.539 5.149)">
              <rect id="Rectangle_453" data-name="Rectangle 453" width="17.455" height="0.532" transform="translate(0 13.178) rotate(-49.02)" fill="#415da5"/>
            </g>
            <g id="Group_7398" data-name="Group 7398" transform="translate(19.745 22.872)">
              <rect id="Rectangle_454" data-name="Rectangle 454" width="0.533" height="19.366" transform="translate(0 0.044) rotate(-4.728)" fill="#415da5"/>
            </g>
            <g id="Group_7399" data-name="Group 7399" transform="translate(3.22 20.146)">
              <rect id="Rectangle_455" data-name="Rectangle 455" width="22.191" height="0.532" transform="translate(0 12.645) rotate(-34.738)" fill="#415da5"/>
            </g>
            <g id="Group_7400" data-name="Group 7400" transform="translate(20.409)">
              <path id="Path_1750" data-name="Path 1750" d="M2866.439,1695.872l.378-.375-15.23-15.362v-19.989h-.532v20.208Z" transform="translate(-2851.055 -1660.146)" fill="#415da5"/>
            </g>
          </g>
          <circle id="Ellipse_45" data-name="Ellipse 45" cx="3.927" cy="3.927" r="3.927" transform="translate(16.171 18.183) rotate(-9.217)" fill="#2c3a64"/>
        </g>
        <g id="Group_7403" data-name="Group 7403">
          <path id="Path_1751" data-name="Path 1751" d="M2822.512,1664.94a23.032,23.032,0,0,0-39.111,2.468v0a22.86,22.86,0,0,0-2.708,10.822c0,.21,0,.423.01.634a21.857,21.857,0,0,0,.191,2.388,23,23,0,0,0,20.015,19.83.323.323,0,0,0,.081.01,22.54,22.54,0,0,0,2.73.165,22.785,22.785,0,0,0,2.757-.165l.084-.01a23.011,23.011,0,0,0,15.952-36.145Zm.786,16.466a19.543,19.543,0,0,1-.786,3.173c-.139.417-.294.831-.466,1.236-.067.165-.135.327-.21.488a19.734,19.734,0,0,1-3.332,5.131c-.116.133-.236.266-.359.395a19.732,19.732,0,0,1-3.565,2.989c-.146.1-.294.194-.446.288a20.248,20.248,0,0,1-3.128,1.575c-.165.065-.333.126-.5.188a19.649,19.649,0,0,1-5.668,1.165c-.178.01-.356.019-.533.022-.194.006-.389.01-.586.01a19.822,19.822,0,0,1-7.21-1.355c-.165-.064-.33-.13-.495-.2a19.7,19.7,0,0,1-2.326-1.165c-.117-.068-.23-.136-.343-.21-.152-.091-.3-.185-.45-.285a19.821,19.821,0,0,1-5.513-5.38v0c-.107-.145-.2-.291-.3-.44-.181-.272-.353-.549-.517-.831a19.7,19.7,0,0,1-2.488-7.221,18.974,18.974,0,0,1-.184-2.387c-.007-.12-.007-.236-.007-.355a19.743,19.743,0,0,1,.23-3.015c.026-.178.055-.353.087-.527a19.825,19.825,0,0,1,3.342-7.922,19.991,19.991,0,0,1,4.588-4.623c.146-.1.291-.2.437-.3a19.706,19.706,0,0,1,3.875-2.058c.162-.065.327-.13.5-.191a19.747,19.747,0,0,1,6.512-1.187c.087,0,.178,0,.265,0s.178,0,.269,0a19.814,19.814,0,0,1,6.253,1.1c.168.058.336.12.5.185a19.749,19.749,0,0,1,4.9,2.711c.143.107.281.217.42.327a19.981,19.981,0,0,1,5.218,6.3c.084.159.165.317.242.476a19.376,19.376,0,0,1,.983,2.384q.242.708.427,1.44c.045.171.087.343.126.517a19.811,19.811,0,0,1,.489,4.387,19.345,19.345,0,0,1-.178,2.646C2823.354,1681.057,2823.327,1681.231,2823.3,1681.406Z" transform="translate(-2780.693 -1655.206)" fill="#202e51"/>
        </g>
        <g id="Group_7404" data-name="Group 7404" transform="translate(2.569 2.882)">
          <path id="Path_1752" data-name="Path 1752" d="M2828.682,1679.832c-.039-.175-.084-.346-.129-.517a20.018,20.018,0,0,0-1.446-3.885q-.116-.243-.242-.476a20.408,20.408,0,0,0-5.273-6.376c-.139-.113-.279-.223-.421-.33a20.167,20.167,0,0,0-11.811-4.125c-.149-.007-.294-.007-.443-.007h-.09a20.208,20.208,0,0,0-6.632,1.145c-.169.058-.334.12-.5.184a20.12,20.12,0,0,0-4,2.067q-.222.146-.44.3a20.367,20.367,0,0,0-4.762,4.694,19.492,19.492,0,0,0-1.479,2.365,19.914,19.914,0,0,0-2.025,5.745c-.035.175-.068.353-.094.527a20,20,0,0,0-.262,3.252c0,.09,0,.184,0,.275a20.168,20.168,0,0,0,3.271,10.766c.1.149.195.295.3.44a20.4,20.4,0,0,0,5.713,5.555c.149.1.3.191.453.281a19.952,19.952,0,0,0,2.776,1.421c.165.068.33.133.5.2a20.181,20.181,0,0,0,7.272,1.349c.272,0,.54-.006.809-.016.178-.006.356-.016.534-.029a20.11,20.11,0,0,0,5.8-1.255c.168-.061.333-.126.5-.194a19.933,19.933,0,0,0,3.2-1.653q.223-.141.446-.291a20.152,20.152,0,0,0,3.6-3.089c.123-.13.243-.262.359-.395a20.21,20.21,0,0,0,3.355-5.29c.074-.162.142-.323.207-.488.055-.129.107-.262.155-.395a20.282,20.282,0,0,0,1.084-4.105c.025-.175.051-.353.074-.527a20.9,20.9,0,0,0,.158-2.555A20.213,20.213,0,0,0,2828.682,1679.832Zm-.524,7.528c-.075.482-.168.957-.275,1.426a19.436,19.436,0,0,1-.906,2.87c-.068.165-.136.327-.207.488a19.486,19.486,0,0,1-3.18,5.031q-.174.2-.359.4a19.422,19.422,0,0,1-3.468,2.979c-.149.1-.3.2-.446.292a19.3,19.3,0,0,1-3.047,1.575c-.165.068-.33.132-.5.194a19.141,19.141,0,0,1-5.581,1.2c-.175.017-.356.026-.533.029-.246.013-.491.016-.741.016a19.317,19.317,0,0,1-6.968-1.291c-.165-.062-.33-.129-.495-.2a19.2,19.2,0,0,1-2.65-1.349c-.152-.094-.3-.188-.449-.285a19.567,19.567,0,0,1-5.478-5.328c-.1-.145-.2-.294-.3-.443a19.279,19.279,0,0,1-3.125-10.368c0-.068,0-.135,0-.2a19.367,19.367,0,0,1,.25-3.116c.028-.178.058-.353.093-.527a19.327,19.327,0,0,1,3.377-7.786,19.582,19.582,0,0,1,4.552-4.484c.146-.1.291-.2.44-.3a19.307,19.307,0,0,1,3.792-1.96c.165-.065.33-.126.5-.184h0a19.313,19.313,0,0,1,6.37-1.1h.09c.149,0,.3,0,.443.006a19.356,19.356,0,0,1,6.066,1.113c.168.058.333.12.5.188a19.25,19.25,0,0,1,4.711,2.627c.142.1.281.214.42.326a19.593,19.593,0,0,1,5.079,6.127q.126.238.242.476a19.233,19.233,0,0,1,1.368,3.655c.045.172.091.343.13.518,0,.01.006.023.01.036a19.62,19.62,0,0,1,.346,6.826C2828.207,1687.01,2828.184,1687.185,2828.158,1687.36Z" transform="translate(-2788.633 -1664.116)" fill="#b84c42"/>
        </g>
      </g>
      <g id="Group_7422" data-name="Group 7422" transform="translate(0 83.062)">
        <g id="Group_7419" data-name="Group 7419" transform="translate(2.35 1.598)">
          <g id="Group_7418" data-name="Group 7418">
            <g id="Group_7406" data-name="Group 7406" transform="translate(20.602 2.528)">
              <rect id="Rectangle_456" data-name="Rectangle 456" width="19.704" height="0.533" transform="translate(0 18.546) rotate(-70.259)" fill="#415da5"/>
            </g>
            <g id="Group_7407" data-name="Group 7407" transform="translate(8.034 3.53)">
              <path id="Path_1753" data-name="Path 1753" d="M2612.11,1697.321l.21-.489-18.831-8.09-12.38-17.685-.436.306,12.466,17.809.07.03Z" transform="translate(-2580.674 -1671.057)" fill="#415da5"/>
            </g>
            <g id="Group_7408" data-name="Group 7408" transform="translate(9.003 20.837)">
              <path id="Path_1754" data-name="Path 1754" d="M2602.809,1745.6l.505-.169c-.134-.4-7.414-19.56-7.724-20.375l-.189-.5-11.732,18.552.45.285,11.162-17.652C2597.948,1732.76,2602.708,1745.3,2602.809,1745.6Z" transform="translate(-2583.669 -1724.558)" fill="#415da5"/>
            </g>
            <g id="Group_7409" data-name="Group 7409" transform="translate(20.63 16.243)">
              <rect id="Rectangle_457" data-name="Rectangle 457" width="21.204" height="0.532" transform="translate(0 3.594) rotate(-9.758)" fill="#415da5"/>
            </g>
            <g id="Group_7410" data-name="Group 7410" transform="translate(12.969 1.513)">
              <rect id="Rectangle_458" data-name="Rectangle 458" width="0.532" height="19.362" transform="matrix(0.949, -0.316, 0.316, 0.949, 0, 0.168)" fill="#415da5"/>
            </g>
            <g id="Group_7411" data-name="Group 7411" transform="translate(0 11.476)">
              <path id="Path_1755" data-name="Path 1755" d="M2576.556,1705.85l.078-.04,19.167-9.717-.241-.475-19.089,9.677-20.545-3.446-.088.525Z" transform="translate(-2555.838 -1695.619)" fill="#415da5"/>
            </g>
            <g id="Group_7412" data-name="Group 7412" transform="translate(12.437 20.852)">
              <path id="Path_1756" data-name="Path 1756" d="M2594.787,1744.965c.114-.334,5.032-12.437,7.786-19.206l10.638,16.735.449-.286-11.191-17.605-.195.477c-.321.789-7.858,19.313-7.992,19.716Z" transform="translate(-2594.282 -1724.603)" fill="#415da5"/>
            </g>
            <g id="Group_7413" data-name="Group 7413" transform="translate(20.637 21.163)">
              <rect id="Rectangle_459" data-name="Rectangle 459" width="0.532" height="20.857" transform="translate(0 0.527) rotate(-81.538)" fill="#415da5"/>
            </g>
            <g id="Group_7414" data-name="Group 7414" transform="translate(21.539 5.149)">
              <rect id="Rectangle_460" data-name="Rectangle 460" width="17.455" height="0.532" transform="translate(0 13.178) rotate(-49.02)" fill="#415da5"/>
            </g>
            <g id="Group_7415" data-name="Group 7415" transform="translate(19.745 22.872)">
              <rect id="Rectangle_461" data-name="Rectangle 461" width="0.532" height="19.366" transform="translate(0 0.044) rotate(-4.731)" fill="#415da5"/>
            </g>
            <g id="Group_7416" data-name="Group 7416" transform="translate(3.22 20.146)">
              <rect id="Rectangle_462" data-name="Rectangle 462" width="22.191" height="0.532" transform="translate(0 12.645) rotate(-34.738)" fill="#415da5"/>
            </g>
            <g id="Group_7417" data-name="Group 7417" transform="translate(20.409)">
              <path id="Path_1757" data-name="Path 1757" d="M2634.312,1695.872l.378-.375-15.23-15.362v-19.989h-.532v20.208Z" transform="translate(-2618.928 -1660.146)" fill="#415da5"/>
            </g>
          </g>
          <circle id="Ellipse_46" data-name="Ellipse 46" cx="3.927" cy="3.927" r="3.927" transform="translate(16.171 18.183) rotate(-9.217)" fill="#2c3a64"/>
        </g>
        <g id="Group_7420" data-name="Group 7420">
          <path id="Path_1758" data-name="Path 1758" d="M2583.634,1658.61a20.8,20.8,0,0,0-1.854-1.026,22.108,22.108,0,0,0-3.018-1.236,23.01,23.01,0,0,0-16.789.97c-.417.191-.832.4-1.236.615a23.024,23.024,0,0,0-.789,40.165c.259.153.524.3.789.44a22.855,22.855,0,0,0,8.052,2.546.315.315,0,0,0,.081.01,22.548,22.548,0,0,0,2.73.165,22.78,22.78,0,0,0,2.756-.165l.084-.01a23.021,23.021,0,0,0,9.194-42.475Zm7.541,22.8a19.372,19.372,0,0,1-1.256,4.409c-.064.165-.136.327-.21.488a19.717,19.717,0,0,1-3.329,5.131c-.116.133-.236.266-.359.395a19.6,19.6,0,0,1-3.565,2.989c-.149.1-.295.194-.446.288a20.107,20.107,0,0,1-3.128,1.575c-.162.065-.327.126-.5.188a19.624,19.624,0,0,1-5.668,1.165c-.178.01-.356.019-.533.022-.195.006-.389.01-.586.01a19.813,19.813,0,0,1-7.214-1.355c-.165-.064-.33-.13-.491-.2a19.7,19.7,0,0,1-2.326-1.165c-.116-.068-.23-.136-.343-.21-.152-.091-.3-.185-.45-.285a.129.129,0,0,1-.039-.026,19.8,19.8,0,0,1-5.477-5.354c-.107-.146-.207-.294-.3-.443-.184-.272-.352-.549-.518-.831a19.879,19.879,0,0,1-2.448-12.979c.025-.178.055-.353.087-.527a19.874,19.874,0,0,1,7.929-12.545c.145-.1.287-.2.436-.3.094-.065.191-.13.288-.191a19.645,19.645,0,0,1,3.588-1.866c.165-.065.333-.13.5-.191a19.738,19.738,0,0,1,6.508-1.187c.091,0,.178,0,.269,0s.178,0,.265,0a19.743,19.743,0,0,1,5.716.918c.182.055.36.117.537.178s.336.12.5.185a19.411,19.411,0,0,1,1.86.815,20.163,20.163,0,0,1,3.044,1.9c.142.107.281.217.42.327a19.977,19.977,0,0,1,5.218,6.3c.084.159.165.317.239.479a19.426,19.426,0,0,1,1.414,3.821c.045.171.087.343.126.517a19.873,19.873,0,0,1,.311,7.033C2591.23,1681.057,2591.2,1681.231,2591.175,1681.406Z" transform="translate(-2548.573 -1655.206)" fill="#1d2a4c"/>
        </g>
        <g id="Group_7421" data-name="Group 7421" transform="translate(2.565 2.882)">
          <path id="Path_1759" data-name="Path 1759" d="M2596.552,1679.832c-.038-.175-.084-.346-.129-.517a19.866,19.866,0,0,0-1.446-3.885q-.118-.243-.243-.476a20.4,20.4,0,0,0-5.274-6.376c-.139-.113-.278-.223-.42-.33a20.212,20.212,0,0,0-5.994-3.145h0a19.059,19.059,0,0,0-2.313-.6,19.516,19.516,0,0,0-3.5-.382c-.149-.007-.295-.007-.443-.007h-.09c-.544,0-1.084.026-1.618.071a19.974,19.974,0,0,0-5.011,1.074c-.168.058-.336.12-.5.184a19.751,19.751,0,0,0-3.465,1.721c-.181.111-.359.226-.537.346-.148.1-.294.2-.44.3a20.29,20.29,0,0,0-8.265,12.8c-.036.175-.068.353-.094.527a19.917,19.917,0,0,0-.262,3.252,20.166,20.166,0,0,0,3.274,11.041c.1.149.2.3.3.444a20.4,20.4,0,0,0,5.716,5.551c.1.068.208.136.311.2.046.032.094.062.139.088a20.062,20.062,0,0,0,2.779,1.417c.161.068.326.133.492.2a20.2,20.2,0,0,0,7.275,1.349c.271,0,.543-.006.812-.016q.267-.01.534-.029a20.066,20.066,0,0,0,5.8-1.255c.169-.061.334-.126.5-.194a19.931,19.931,0,0,0,3.2-1.653q.223-.141.447-.291a20.183,20.183,0,0,0,3.6-3.089c.123-.13.243-.262.36-.395a20.308,20.308,0,0,0,3.357-5.29c.071-.162.139-.323.2-.488a20.035,20.035,0,0,0,1.239-4.5c.025-.175.051-.353.074-.527a20.9,20.9,0,0,0,.159-2.555A20.2,20.2,0,0,0,2596.552,1679.832Zm-.524,7.528a19.474,19.474,0,0,1-1.181,4.3c-.068.165-.135.327-.207.488a19.517,19.517,0,0,1-3.18,5.031q-.175.2-.36.4a19.423,19.423,0,0,1-3.468,2.979c-.148.1-.3.2-.446.292a19.334,19.334,0,0,1-3.047,1.575c-.166.068-.33.132-.5.194a19.143,19.143,0,0,1-5.577,1.2c-.174.017-.355.026-.533.029-.246.013-.5.016-.744.016a19.317,19.317,0,0,1-6.968-1.291c-.165-.062-.33-.129-.5-.2a19.218,19.218,0,0,1-2.646-1.349c-.152-.094-.3-.188-.449-.285-.042-.026-.084-.052-.126-.084a19.574,19.574,0,0,1-5.354-5.244c-.1-.145-.2-.294-.294-.443a19.445,19.445,0,0,1-2.882-13.687c.029-.178.058-.353.094-.527a19.479,19.479,0,0,1,7.932-12.267c.146-.107.291-.207.437-.3.023-.016.046-.029.068-.042a19.1,19.1,0,0,1,3.724-1.919c.164-.065.333-.126.5-.184a19.315,19.315,0,0,1,6.37-1.1h.09c.148,0,.3,0,.443.006a19.184,19.184,0,0,1,5.512.929c.188.059.369.12.553.184.168.058.333.12.5.188a19.281,19.281,0,0,1,4.71,2.627c.142.1.281.214.421.326a19.582,19.582,0,0,1,5.079,6.127q.126.238.243.476a19.2,19.2,0,0,1,1.368,3.655c.045.172.091.343.13.518a19.571,19.571,0,0,1,.356,6.862C2596.076,1687.01,2596.054,1687.185,2596.028,1687.36Z" transform="translate(-2556.503 -1664.116)" fill="#b84c42"/>
        </g>
      </g>
      <path id="Path_1760" data-name="Path 1760" d="M2729.13,1558.864s4.87,7.721-1.148,11.967-26.282,6.277-25.288,7.1c3.039,2.519,5.8,6.394,5.655,29.595l-1.5.775s-14.45-31.434-13.481-35.18C2694.007,1570.642,2715.083,1557.22,2729.13,1558.864Z" transform="translate(-2646.494 -1506.875)" fill="#ffb27d"/>
      <path id="Path_1761" data-name="Path 1761" d="M2745.066,1564.089s12.278-2.034,13.545-6.368c.946-3.238,1.227-4.559-4.338-15.021,0,0-2.324,4.417-14.461,3.395,0,0,.062.574.062,1.348-.016,1.287-.217,3.115-1.225,3.642-.015.016-.046.016-.062.031-1.6.729-4.069,2.2-4.441,2.337C2734.131,1553.454,2741.594,1554.883,2745.066,1564.089Z" transform="translate(-2674.114 -1496.034)" fill="#35488b"/>
      <path id="Path_1762" data-name="Path 1762" d="M2748.066,1558.736c5.409-1.6,10.693-1.428,13.808-4.337-4.588-1.178-10.1.7-12.584.7C2749.275,1556.381,2749.073,1558.209,2748.066,1558.736Z" transform="translate(-2683.53 -1503.685)" fill="#2c3a64"/>
      <g id="Group_7423" data-name="Group 7423" transform="translate(54.702 97.493)">
        <path id="Path_1763" data-name="Path 1763" d="M2726.854,1704.1l-1.265.607c-.456.137-.828.165-1.29.317a1.3,1.3,0,0,0-.906.738.077.077,0,0,0-.005.018l-5.375,2.582c-.228-.128-.312-.637-.343-1.028a.844.844,0,0,1,.282-.7,6.434,6.434,0,0,0,2.125-2.552c.328-.8,1.872-3.266,1.872-3.266l.01-.008c.049-.022.315-.063,1.732.3.732.189,1.112-1.3,1.112-1.3a1.411,1.411,0,0,1,.481.255,1.481,1.481,0,0,1,.511.77,5.946,5.946,0,0,0,1.342,1.808c.3.308.534.519.534.519S2727.877,1703.442,2726.854,1704.1Z" transform="translate(-2717.667 -1699.815)" fill="#b84c42"/>
        <path id="Path_1764" data-name="Path 1764" d="M2734.237,1700.07a4.446,4.446,0,0,1-1.032,1.342c-.535.349-2.3-.6-2.3-.6l.01-.008c.049-.022.315-.063,1.732.3.733.189,1.112-1.3,1.112-1.3A1.408,1.408,0,0,1,2734.237,1700.07Z" transform="translate(-2726.62 -1699.815)" fill="#aa3e39"/>
        <path id="Path_1765" data-name="Path 1765" d="M2726.861,1710.023l-1.265.608c-.456.137-.828.165-1.29.317a1.3,1.3,0,0,0-.906.738.153.153,0,0,0-.006.018l-5.374,2.582c-.228-.128-.312-.638-.344-1.028.094-.223.512.53.662.61a26.555,26.555,0,0,0,4.567-2.36,2.879,2.879,0,0,1,1.91-1.223,5.418,5.418,0,0,0,2.329-1.714c.3.308.534.519.534.519S2727.884,1709.364,2726.861,1710.023Z" transform="translate(-2717.673 -1705.738)" fill="#aa3e39"/>
      </g>
      <path id="Path_1766" data-name="Path 1766" d="M2628.536,1582.5a2.316,2.316,0,0,1,2.011-1.452c9.941-22.837,10.048-23.016,10.2-23.261l1.438,2.848c.076-.125-22.482,50.594-22.482,50.594l-2.219-.9Z" transform="translate(-2595.19 -1506.241)" fill="#35488b"/>
      <path id="Path_1767" data-name="Path 1767" d="M2712.638,1560.241a3,3,0,1,0-3.729,2.021A3,3,0,0,0,2712.638,1560.241Z" transform="translate(-2655.588 -1505.292)" fill="#415da5"/>
      <path id="Path_1768" data-name="Path 1768" d="M2655.228,1544.011a3,3,0,1,0-3.73,2.021A3,3,0,0,0,2655.228,1544.011Z" transform="translate(-2616.75 -1494.313)" fill="#415da5"/>
      <g id="Group_7424" data-name="Group 7424" transform="translate(36.232 48.187)">
        <path id="Path_1769" data-name="Path 1769" d="M2660.574,1550.929l17.466,4.383.3-3.528-17.466-4.383Z" transform="translate(-2660.574 -1547.401)" fill="#415da5"/>
      </g>
      <path id="Path_1770" data-name="Path 1770" d="M2698.409,1547.546a6.3,6.3,0,0,1-2.807,1.029,9.094,9.094,0,0,0-2.64.436,2.571,2.571,0,0,0-1.7,2.3s.007.534,2.446-.218c.534-.165,1.817.145,2.253,0s1.76-1.576,2.914-1.539Z" transform="translate(-2645.106 -1499.312)" fill="#ffb27d"/>
      <path id="Path_1771" data-name="Path 1771" d="M2671.214,1541.108a6.3,6.3,0,0,1-2.807,1.028,9.1,9.1,0,0,0-2.64.436,2.572,2.572,0,0,0-1.7,2.3s.034.757,2.446-.218c.662-.268,1.817.145,2.253,0a23.556,23.556,0,0,1,3.14-1.675Z" transform="translate(-2626.708 -1494.957)" fill="#e8945b"/>
      <path id="Path_1772" data-name="Path 1772" d="M2734.519,1404.563c2.4.433,3.514,1.731,5.036,5.429,1.589,3.86-.335,7.412-1.867,6.949-.981-.3-1.326,1.385-1.326,1.385l-9.342-8.162S2728.382,1404.171,2734.519,1404.563Z" transform="translate(-2669.293 -1402.572)" fill="#2c3a64"/>
      <path id="Path_1773" data-name="Path 1773" d="M2701.4,1473.274a6.679,6.679,0,0,1,2.872,6.47c-.383,4.639-4.64,11.951-7.876,13.766-2.563,1.438-9.978,3.681-9.978,3.681l-.267-2.013s6.033-3.939,7.338-5.284C2696.288,1487.007,2698.954,1472.152,2701.4,1473.274Z" transform="translate(-2641.644 -1449.026)" fill="#e8945b"/>
      <path id="Path_1774" data-name="Path 1774" d="M2734.021,1464.188a11.976,11.976,0,0,0,.764,2.8c.283.716.611,1.4.948,2.111.989,2.092,3.318,3.122,3.4,7.144.027,1.385,11.729-4.467,11.8-9.311a.175.175,0,0,1,0-.037c.02-.235.052-.863.087-1.695.088-2.033.2-5.275.245-6.917,0-.039,0-.076,0-.112.017-.7.039-1.212.066-1.345-1.567-6.665-5.171-6.694-6.4-6.673-.162,0-.328.008-.492.016a1.978,1.978,0,0,1-1.706-.845,13.667,13.667,0,0,1-1.934-4.962l-.281.119-4.724,2.008s.437,1.528.746,2.988a15.276,15.276,0,0,1,.282,1.712,1.026,1.026,0,0,1-.653,1.049h0l0,0C2736.084,1452.432,2733.267,1458.886,2734.021,1464.188Z" transform="translate(-2673.942 -1429.509)" fill="#ffb27d"/>
      <path id="Path_1775" data-name="Path 1775" d="M2736.65,1510.567c.283.716.611,1.4.949,2.111.989,2.092,3.318,3.122,3.4,7.144l.217.02c8.64.675,11.585-9.368,11.585-9.368.02-.235.052-.863.087-1.695l-15.591.025A15.819,15.819,0,0,0,2736.65,1510.567Z" transform="translate(-2675.807 -1473.086)" fill="#e8945b"/>
      <path id="Path_1776" data-name="Path 1776" d="M2729.216,1474.217q.065.194.146.387c1.5,3.57,4.808,21.943,4.808,21.943.041-.023,13.52.884,18.863-6.488.26.779-1-3.714-2.972-9.75-1.478-4.53-2.232-7.725-2.173-10.038,0-.039,0-.076,0-.112-.344-.276-.679-.53-.988-.774-.992-.782-1.731-1.445-1.748-2.262a6.275,6.275,0,0,1,.061-.979q.032-.232.076-.463a13.29,13.29,0,0,1,1.048-3.078,12.052,12.052,0,0,0-4.785-.463,10.5,10.5,0,0,1-3.621,4.132c-.69.432-3.154,1.514-4.367.388a3.353,3.353,0,0,1-.776-2.429v0a12.96,12.96,0,0,0-3.813,1.848C2730.6,1467.214,2728.06,1470.765,2729.216,1474.217Z" transform="translate(-2670.567 -1441.496)" fill="#739af0"/>
      <path id="Path_1777" data-name="Path 1777" d="M2739.77,1446.741s.437,1.528.746,2.988c2.742-.655,3.673-3.476,3.978-5Z" transform="translate(-2677.918 -1429.759)" fill="#e8945b"/>
      <path id="Path_1778" data-name="Path 1778" d="M2729.791,1431.252s6.548-1.259,5.7-5.325-.572-6.966-4.788-6.334-4.7,2.352-4.75,3.778S2728.066,1431.474,2729.791,1431.252Z" transform="translate(-2668.571 -1412.693)" fill="#ffb27d"/>
      <path id="Path_1779" data-name="Path 1779" d="M2724.376,1419.467c.753-1.434,1.571-1.325,2.075-1.047a4.66,4.66,0,0,1,6.061-.29,7.933,7.933,0,0,0,3.5,4.055s-1.036.984-3.925.853a4.761,4.761,0,0,1-2.542-1.068,15.556,15.556,0,0,0,3.29,2.651c-3.592-.828-5.861-5.108-6.093-5.562a5.222,5.222,0,0,0-1.026,2.194c-.108,1.1.191,3.265-.445,3.322C2725.273,1424.576,2723.248,1421.616,2724.376,1419.467Z" transform="translate(-2667.273 -1411.089)" fill="#2c3a64"/>
      <path id="Path_1780" data-name="Path 1780" d="M2713.346,1490.683l.47,2.008s10.987-1.5,14.578-3.591,9.029-14.377,9.458-19.572q.035-.413.043-.789c.131-4.486-2.078-5.183-2.078-5.183-.884-.406-1.983,1.11-3.147,3.479-2.442,4.968-5.17,13.689-6.792,16.271C2724.632,1485.29,2713.346,1490.683,2713.346,1490.683Z" transform="translate(-2660.042 -1442.449)" fill="#ffb27d"/>
      <path id="Path_1781" data-name="Path 1781" d="M2773.078,1467.036a5.829,5.829,0,0,1,5.225,1.7c.131-4.486-2.078-5.183-2.078-5.183C2775.34,1463.151,2774.242,1464.667,2773.078,1467.036Z" transform="translate(-2700.451 -1442.449)" fill="#739af0"/>
      <path id="Path_1782" data-name="Path 1782" d="M2725.955,1474.424a6.25,6.25,0,0,0-1.524,3.348,2.816,2.816,0,0,1,2.388,1.6S2727.421,1474.678,2725.955,1474.424Z" transform="translate(-2667.541 -1449.845)" fill="#739af0"/>
      <path id="Path_1783" data-name="Path 1783" d="M2746.67,1401.893s3.619-4.485,8.184-3.226,7.163,6.533,9.284,5.665c3.561-1.457,4.549,3.323,3.127,6.8-1.241,3.038-6.609,4.194-9.859.867-2.368-2.424-5.622-12.783-9.635-9.321S2746.67,1401.893,2746.67,1401.893Z" transform="translate(-2681.896 -1398.445)" fill="#2c3a64"/>
    </g>
    <path id="Path_1784" data-name="Path 1784" d="M1242.663,1798.053v.342a1,1,0,0,1-1,1h-878a1,1,0,0,1-1-1v-.342a1,1,0,0,1,1-1h878A1,1,0,0,1,1242.663,1798.053Z" transform="translate(0 -966.857)" fill="#233862"/>
    <path id="Path_1785" data-name="Path 1785" d="M1193.057,1617.337l3.058-2.369-5.52,0Z" transform="translate(-560.098 -843.671)" fill="#1d3f77"/>
    <path id="Path_1786" data-name="Path 1786" d="M1654.39,1674.837l2.1-1.626h-6.964Z" transform="translate(-870.564 -883.075)" fill="#1d3f77"/>
  </g>
</svg>
